<svg xmlns="http://www.w3.org/2000/svg" viewBox="0 0 309.44 142.16"><defs><style>.cls-1{fill:#ceccc3;}.cls-2{fill:#eae9e8;}.cls-3{fill:#ef904e;}.cls-4{fill:#e9c362;}.cls-5{fill:#605a68;}.cls-6{fill:#262626;}</style></defs><title>OrangeKoi</title><g id="distant_fin" data-name="distant fin"><path class="cls-1" d="M185,113.53s11.72,14.62,14.91,16.35,11.14,5.94,14.61,4.49,7.53-3.91,7.38-16.21-10.56-10.85-10.56-10.85Z" transform="translate(-22.89 -12)"/><path class="cls-1" d="M240.13,96.17s13.5,7.17,18.17,8.67,7.67,2.49,11.67,3.74,10.33-2.17,9.5-6.21-5.34-8.25-5.17-10.89,2-5.5-9.33-5.66S240.13,96.17,240.13,96.17Z" transform="translate(-22.89 -12)"/></g><g id="Body"><path class="cls-2" d="M23.12,116.71s-1.76-8.33,4.38-10.95,32-35.93,52.57-44.69,43.38-17.53,52.14-18.41,26.29-3.06,28.92-4.38,13.14-16.65,24.1-21,17.52-10.95,17.52,5.26,35.93-1.75,60.9,23.66c0,0-9.64,2.19-6.13,3.94S279,56.25,306.59,34.34s22.78-22.91,24.09-22.19,2.2,12.55-5.69,23.5-19.72,21.91,0,40.53-6.57,13.36-6.57,13.36S286,81.66,272,84.29,235.61,100.06,221.15,104s-66.59,32-168.24,27.6C52.91,131.6,30.13,129.41,23.12,116.71Z" transform="translate(-22.89 -12)"/><path class="cls-2" d="M49.33,129.33S53,141,56.33,143c0,0-6-14,0-13.67S49.33,129.33,49.33,129.33Z" transform="translate(-22.89 -12)"/><path class="cls-2" d="M37.75,122.5s3.67,11.66,7,13.66c0,0-6-14,0-13.66S37.75,122.5,37.75,122.5Z" transform="translate(-22.89 -12)"/></g><g id="Color"><path class="cls-3" d="M29.62,104.34s7.6,10.4,19.33,3.88S67.21,87.79,81.12,92.13s18.25,15.22,23.47,15.65S113.72,120,124.15,120s8.69-18.69,3.48-33.9-22.27-19.13-15.7-26.52,27.43,11.31,32.21,17.61,10.43,30.21,16.09,31.08,16.08-.44,17-12.17S185,78.66,192.83,77.14,188.91,50.84,180,45.63s32.82,10.86,34.12,27.81-1.3,29.13,7.83,27S237.16,75.62,234.55,63c0,0,3.48,12.61,13,12.17s10.87-17.82,10.87-17.82.43,10,11.3,10.43,9.75-18.26,9.75-18.26-8,3.47-31-.53c-20.91-3.64-53.41-8.94-92.19-9C112.75,39.88,76.05,63,76.05,63A223.15,223.15,0,0,0,29.62,104.34Z" transform="translate(-22.89 -12)"/></g><g id="Eye"><circle class="cls-4" cx="48.09" cy="96.64" r="11.31"/><circle class="cls-5" cx="48.09" cy="96.64" r="7.05"/><circle class="cls-6" cx="48.09" cy="96.64" r="3.53"/></g><g id="Layer_5" data-name="Layer 5"><path class="cls-2" d="M132.27,124.4l27.84-6.23s22,7.14,23.64,11,8.43,20.16-2.56,24.38-44-14.12-45.64-17.69S131.55,127.88,132.27,124.4Z" transform="translate(-22.89 -12)"/></g></svg>