<svg id="Layer_1" data-name="Layer 1" xmlns="http://www.w3.org/2000/svg" xmlns:xlink="http://www.w3.org/1999/xlink" viewBox="0 0 471 469.33"><defs><clipPath id="clip-path"><rect x="-620.86" y="18.51" width="470.76" height="470.05" style="fill:none;stroke:#000;stroke-miterlimit:10;stroke-width:0.5px"/></clipPath><clipPath id="clip-path-2"><rect y="-0.33" width="470.76" height="470.05" style="fill:none"/></clipPath></defs><title>scales</title><g style="opacity:0.20000000298023224"><g style="clip-path:url(#clip-path)"><path d="M20.57,52.65C10.44,32.26-8.78,18.5-30.83,18.5S-72.08,32.26-82.21,52.64" style="fill:none;stroke:#000;stroke-miterlimit:10;stroke-width:0.5px"/><path d="M9.21,55.63C.63,40.85-14.1,31.09-30.79,31.09s-31.13,9.55-39.74,24.06" style="fill:none;stroke:#000;stroke-miterlimit:10;stroke-width:0.5px"/><path d="M20.57,119.8C10.44,99.41-8.78,85.65-30.83,85.65s-41.25,13.76-51.38,34.14" style="fill:none;stroke:#000;stroke-miterlimit:10;stroke-width:0.5px"/><path d="M9.21,122.78C.63,108-14.1,98.25-30.79,98.25s-31.13,9.54-39.74,24" style="fill:none;stroke:#000;stroke-miterlimit:10;stroke-width:0.5px"/><path d="M20.57,187c-10.13-20.39-29.35-34.15-51.4-34.15S-72.08,166.61-82.21,187" style="fill:none;stroke:#000;stroke-miterlimit:10;stroke-width:0.5px"/><path d="M9.21,189.93c-8.58-14.79-23.31-24.53-40-24.53s-31.13,9.54-39.74,24" style="fill:none;stroke:#000;stroke-miterlimit:10;stroke-width:0.5px"/><path d="M20.57,254.1C10.44,233.71-8.78,220-30.83,220s-41.25,13.76-51.38,34.14" style="fill:none;stroke:#000;stroke-miterlimit:10;stroke-width:0.5px"/><path d="M9.21,257.08c-8.58-14.78-23.31-24.54-40-24.54s-31.13,9.55-39.74,24.06" style="fill:none;stroke:#000;stroke-miterlimit:10;stroke-width:0.5px"/><path d="M20.57,321.25C10.44,300.86-8.78,287.1-30.83,287.1s-41.25,13.76-51.38,34.13" style="fill:none;stroke:#000;stroke-miterlimit:10;stroke-width:0.5px"/><path d="M9.21,324.23c-8.58-14.78-23.31-24.54-40-24.54s-31.13,9.54-39.74,24.06" style="fill:none;stroke:#000;stroke-miterlimit:10;stroke-width:0.5px"/><path d="M20.57,388.39C10.44,368-8.78,354.26-30.83,354.26S-72.08,368-82.21,388.38" style="fill:none;stroke:#000;stroke-miterlimit:10;stroke-width:0.5px"/><path d="M9.21,391.38c-8.58-14.78-23.31-24.54-40-24.54s-31.13,9.55-39.74,24.06" style="fill:none;stroke:#000;stroke-miterlimit:10;stroke-width:0.5px"/><path d="M20.57,455.55C10.44,435.16-8.78,421.4-30.83,421.4s-41.25,13.76-51.38,34.14" style="fill:none;stroke:#000;stroke-miterlimit:10;stroke-width:0.5px"/><path d="M9.21,458.53C.63,443.75-14.1,434-30.79,434s-31.13,9.53-39.74,24.05" style="fill:none;stroke:#000;stroke-miterlimit:10;stroke-width:0.5px"/><path d="M79.57,19.07C69.45-1.31,50.23-15.07,28.18-15.07S-13.08-1.32-23.21,19.06" style="fill:none;stroke:#000;stroke-miterlimit:10;stroke-width:0.5px"/><path d="M68.21,22.05c-8.57-14.78-23.3-24.53-40-24.53S-2.93,7.06-11.54,21.57" style="fill:none;stroke:#000;stroke-miterlimit:10;stroke-width:0.5px"/><path d="M58,27.32C51.25,16.89,40.41,10.11,28.18,10.11S5.11,16.88-1.6,27.31" style="fill:none;stroke:#000;stroke-miterlimit:10;stroke-width:0.5px"/><path d="M48.91,34.56C44.2,27.36,36.72,22.7,28.18,22.7s-16,4.66-20.73,11.86" style="fill:none;stroke:#000;stroke-miterlimit:10;stroke-width:0.5px"/><path d="M41,43.84c-2.53-5.1-7.34-8.55-12.86-8.55s-10.32,3.44-12.85,8.54" style="fill:none;stroke:#000;stroke-miterlimit:10;stroke-width:0.5px"/><path d="M79.57,86.22C69.45,65.84,50.23,52.08,28.18,52.08S-13.08,65.83-23.21,86.21" style="fill:none;stroke:#000;stroke-miterlimit:10;stroke-width:0.5px"/><path d="M68.21,89.2c-8.57-14.78-23.3-24.53-40-24.53s-31.14,9.54-39.75,24" style="fill:none;stroke:#000;stroke-miterlimit:10;stroke-width:0.5px"/><path d="M58,94.47C51.25,84,40.41,77.26,28.18,77.26S5.11,84-1.6,94.46" style="fill:none;stroke:#000;stroke-miterlimit:10;stroke-width:0.5px"/><path d="M48.91,101.71c-4.71-7.2-12.24-11.86-20.73-11.86s-16,4.66-20.73,11.86" style="fill:none;stroke:#000;stroke-miterlimit:10;stroke-width:0.5px"/><path d="M41,111c-2.53-5.1-7.34-8.55-12.86-8.55S17.86,105.88,15.33,111" style="fill:none;stroke:#000;stroke-miterlimit:10;stroke-width:0.5px"/><path d="M79.57,153.37C69.45,133,50.23,119.23,28.18,119.23S-13.08,133-23.21,153.36" style="fill:none;stroke:#000;stroke-miterlimit:10;stroke-width:0.5px"/><path d="M68.21,156.35c-8.57-14.78-23.3-24.53-40-24.53s-31.14,9.54-39.75,24.05" style="fill:none;stroke:#000;stroke-miterlimit:10;stroke-width:0.5px"/><path d="M58,161.62c-6.71-10.43-17.55-17.21-29.78-17.21S5.11,151.18-1.6,161.61" style="fill:none;stroke:#000;stroke-miterlimit:10;stroke-width:0.5px"/><path d="M48.91,168.86C44.2,161.66,36.72,157,28.18,157s-16,4.66-20.73,11.86" style="fill:none;stroke:#000;stroke-miterlimit:10;stroke-width:0.5px"/><path d="M41,178.14c-2.53-5.1-7.34-8.55-12.86-8.55S17.86,173,15.33,178.13" style="fill:none;stroke:#000;stroke-miterlimit:10;stroke-width:0.5px"/><path d="M79.57,220.52c-10.12-20.38-29.34-34.14-51.39-34.14s-41.26,13.75-51.39,34.13" style="fill:none;stroke:#000;stroke-miterlimit:10;stroke-width:0.5px"/><path d="M68.21,223.5c-8.57-14.78-23.3-24.53-40-24.53S-2.93,208.51-11.54,223" style="fill:none;stroke:#000;stroke-miterlimit:10;stroke-width:0.5px"/><path d="M58,228.77c-6.71-10.44-17.55-17.21-29.78-17.21S5.11,218.33-1.6,228.76" style="fill:none;stroke:#000;stroke-miterlimit:10;stroke-width:0.5px"/><path d="M48.91,236c-4.71-7.19-12.24-11.86-20.73-11.86s-16,4.67-20.73,11.87" style="fill:none;stroke:#000;stroke-miterlimit:10;stroke-width:0.5px"/><path d="M41,245.29c-2.53-5.1-7.34-8.55-12.86-8.55s-10.32,3.44-12.85,8.54" style="fill:none;stroke:#000;stroke-miterlimit:10;stroke-width:0.5px"/><path d="M79.57,287.67c-10.12-20.38-29.34-34.14-51.39-34.14s-41.26,13.75-51.39,34.13" style="fill:none;stroke:#000;stroke-miterlimit:10;stroke-width:0.5px"/><path d="M68.21,290.65c-8.57-14.78-23.3-24.53-40-24.53s-31.14,9.54-39.75,24.05" style="fill:none;stroke:#000;stroke-miterlimit:10;stroke-width:0.5px"/><path d="M58,295.92c-6.71-10.43-17.55-17.21-29.78-17.21S5.11,285.48-1.6,295.91" style="fill:none;stroke:#000;stroke-miterlimit:10;stroke-width:0.5px"/><path d="M48.91,303.17C44.2,296,36.72,291.3,28.18,291.3s-16,4.67-20.73,11.87" style="fill:none;stroke:#000;stroke-miterlimit:10;stroke-width:0.5px"/><path d="M41,312.44c-2.53-5.1-7.34-8.55-12.86-8.55s-10.32,3.45-12.85,8.54" style="fill:none;stroke:#000;stroke-miterlimit:10;stroke-width:0.5px"/><path d="M79.57,354.82c-10.12-20.38-29.34-34.14-51.39-34.14s-41.26,13.75-51.39,34.13" style="fill:none;stroke:#000;stroke-miterlimit:10;stroke-width:0.5px"/><path d="M68.21,357.8c-8.57-14.78-23.3-24.53-40-24.53s-31.14,9.54-39.75,24.05" style="fill:none;stroke:#000;stroke-miterlimit:10;stroke-width:0.5px"/><path d="M58,363.07c-6.71-10.43-17.55-17.21-29.78-17.21S5.11,352.63-1.6,363.06" style="fill:none;stroke:#000;stroke-miterlimit:10;stroke-width:0.5px"/><path d="M48.91,370.31c-4.71-7.2-12.24-11.86-20.73-11.86s-16,4.66-20.73,11.87" style="fill:none;stroke:#000;stroke-miterlimit:10;stroke-width:0.5px"/><path d="M41,379.59c-2.53-5.1-7.34-8.55-12.86-8.55s-10.32,3.45-12.85,8.54" style="fill:none;stroke:#000;stroke-miterlimit:10;stroke-width:0.5px"/><path d="M79.57,422c-10.12-20.38-29.34-34.14-51.39-34.14S-13.08,401.58-23.21,422" style="fill:none;stroke:#000;stroke-miterlimit:10;stroke-width:0.5px"/><path d="M68.21,425c-8.57-14.78-23.3-24.53-40-24.53s-31.14,9.54-39.75,24" style="fill:none;stroke:#000;stroke-miterlimit:10;stroke-width:0.5px"/><path d="M58,430.22C51.25,419.78,40.41,413,28.18,413S5.11,419.77-1.6,430.2" style="fill:none;stroke:#000;stroke-miterlimit:10;stroke-width:0.5px"/><path d="M48.91,437.46c-4.71-7.19-12.24-11.86-20.73-11.86s-16,4.67-20.73,11.86" style="fill:none;stroke:#000;stroke-miterlimit:10;stroke-width:0.5px"/><path d="M41,446.74c-2.53-5.11-7.34-8.55-12.86-8.55s-10.32,3.44-12.85,8.54" style="fill:none;stroke:#000;stroke-miterlimit:10;stroke-width:0.5px"/><path d="M79.57,489.12C69.45,468.74,50.23,455,28.18,455s-41.26,13.75-51.39,34.13" style="fill:none;stroke:#000;stroke-miterlimit:10;stroke-width:0.5px"/><path d="M68.21,492.1c-8.57-14.78-23.3-24.53-40-24.53s-31.14,9.54-39.75,24.05" style="fill:none;stroke:#000;stroke-miterlimit:10;stroke-width:0.5px"/></g><rect x="-620.86" y="18.51" width="470.76" height="470.05" style="fill:none;stroke:#000;stroke-miterlimit:10;stroke-width:0.5px"/></g><g style="opacity:0.20000000298023224"><g style="clip-path:url(#clip-path-2)"><path d="M51.39,33.81C41.27,13.43,22.05-.33,0-.33S-41.26,13.42-51.4,33.8" style="fill:none;stroke:#000;stroke-width:2.5px"/><path d="M40,36.79C31.46,22,16.73,12.26,0,12.26c-16.55,0-31.14,9.54-39.75,24.05" style="fill:none;stroke:#000;stroke-width:2.5px"/><path d="M29.78,42.06C23.07,31.63,12.23,24.85,0,24.85s-23.07,6.77-29.78,17.2" style="fill:none;stroke:#000;stroke-width:2.5px"/><path d="M20.73,49.3C16,42.11,8.49,37.44,0,37.44s-16,4.67-20.73,11.87" style="fill:none;stroke:#000;stroke-width:2.5px"/><path d="M12.86,58.58C10.33,53.48,5.52,50,0,50s-10.32,3.44-12.85,8.54" style="fill:none;stroke:#000;stroke-width:2.5px"/><path d="M169.4,33.81C159.27,13.43,140.05-.33,118-.33S76.75,13.42,66.6,33.8" style="fill:none;stroke:#000;stroke-width:2.5px"/><path d="M158,36.79c-8.57-14.78-23.3-24.53-40-24.53S86.9,21.8,78.29,36.31" style="fill:none;stroke:#000;stroke-width:2.5px"/><path d="M147.79,42.06C141.08,31.63,130.24,24.85,118,24.85s-23.07,6.77-29.78,17.2" style="fill:none;stroke:#000;stroke-width:2.5px"/><path d="M138.73,49.3C134,42.11,126.5,37.44,118,37.44s-16,4.67-20.73,11.87" style="fill:none;stroke:#000;stroke-width:2.5px"/><path d="M130.87,58.58C128.33,53.48,123.53,50,118,50s-10.32,3.44-12.85,8.54" style="fill:none;stroke:#000;stroke-width:2.5px"/><path d="M287.41,33.81C277.29,13.43,258.06-.33,236-.33S194.76,13.42,184.6,33.8" style="fill:none;stroke:#000;stroke-width:2.5px"/><path d="M276.05,36.79c-8.58-14.78-23.3-24.53-40-24.53s-31.14,9.54-39.76,24.05" style="fill:none;stroke:#000;stroke-width:2.5px"/><path d="M265.8,42.06C259.09,31.63,248.25,24.85,236,24.85S213,31.62,206.24,42.05" style="fill:none;stroke:#000;stroke-width:2.5px"/><path d="M256.74,49.3C252,42.11,244.51,37.44,236,37.44s-16,4.67-20.73,11.87" style="fill:none;stroke:#000;stroke-width:2.5px"/><path d="M248.88,58.58C246.35,53.48,241.53,50,236,50s-10.33,3.44-12.86,8.54" style="fill:none;stroke:#000;stroke-width:2.5px"/><path d="M405.42,33.81C395.29,13.43,376.07-.33,354-.33S312.76,13.42,302.6,33.8" style="fill:none;stroke:#000;stroke-width:2.5px"/><path d="M394.06,36.79c-8.58-14.78-23.3-24.53-40-24.53S322.92,21.8,314.3,36.31" style="fill:none;stroke:#000;stroke-width:2.5px"/><path d="M383.81,42.06C377.1,31.63,366.26,24.85,354,24.85S331,31.62,324.25,42.05" style="fill:none;stroke:#000;stroke-width:2.5px"/><path d="M374.75,49.3c-4.7-7.19-12.23-11.86-20.72-11.86s-16,4.67-20.73,11.87" style="fill:none;stroke:#000;stroke-width:2.5px"/><path d="M366.89,58.58C364.35,53.48,359.54,50,354,50s-10.33,3.44-12.86,8.54" style="fill:none;stroke:#000;stroke-width:2.5px"/><path d="M523.43,33.81C513.3,13.43,494.08-.33,472-.33S430.78,13.42,420.65,33.8" style="fill:none;stroke:#000;stroke-width:2.5px"/><path d="M512.07,36.79c-8.58-14.78-23.31-24.53-40-24.53s-31.14,9.54-39.76,24.05" style="fill:none;stroke:#000;stroke-width:2.5px"/><path d="M501.81,42.06c-6.7-10.43-17.55-17.21-29.77-17.21S449,31.62,442.26,42.05" style="fill:none;stroke:#000;stroke-width:2.5px"/><path d="M492.76,49.3c-4.7-7.19-12.24-11.86-20.72-11.86s-16,4.67-20.73,11.87" style="fill:none;stroke:#000;stroke-width:2.5px"/><path d="M484.89,58.58C482.36,53.48,477.6,50,472,50s-10.32,3.44-12.85,8.54" style="fill:none;stroke:#000;stroke-width:2.5px"/><path d="M51.39,101C41.27,80.62,22.05,66.86,0,66.86S-41.26,80.57-51.4,101" style="fill:none;stroke:#000;stroke-width:2.5px"/><path d="M40,104C31.46,89.21,16.73,79.46,0,79.46c-16.55,0-31.14,9.54-39.75,24" style="fill:none;stroke:#000;stroke-width:2.5px"/><path d="M29.78,109.21C23.07,98.78,12.23,92,0,92s-23.07,6.78-29.78,17.2" style="fill:none;stroke:#000;stroke-width:2.5px"/><path d="M20.73,116.45C16,109.25,8.49,104.59,0,104.59s-16,4.66-20.73,11.86" style="fill:none;stroke:#000;stroke-width:2.5px"/><path d="M12.86,125.73c-2.53-5.1-7.34-8.55-12.86-8.55s-10.32,3.44-12.85,8.54" style="fill:none;stroke:#000;stroke-width:2.5px"/><path d="M169.4,101C159.27,80.62,140.05,66.86,118,66.86S76.75,80.57,66.6,101" style="fill:none;stroke:#000;stroke-width:2.5px"/><path d="M158,104c-8.57-14.79-23.3-24.54-40-24.54S86.9,89,78.29,103.46" style="fill:none;stroke:#000;stroke-width:2.5px"/><path d="M147.79,109.21C141.08,98.78,130.24,92,118,92s-23.07,6.78-29.78,17.2" style="fill:none;stroke:#000;stroke-width:2.5px"/><path d="M138.73,116.45c-4.7-7.2-12.23-11.86-20.72-11.86s-16,4.66-20.73,11.86" style="fill:none;stroke:#000;stroke-width:2.5px"/><path d="M130.87,125.73c-2.54-5.1-7.34-8.55-12.86-8.55s-10.32,3.44-12.85,8.54" style="fill:none;stroke:#000;stroke-width:2.5px"/><path d="M287.41,101C277.29,80.62,258.06,66.86,236,66.86S194.76,80.57,184.6,101" style="fill:none;stroke:#000;stroke-width:2.5px"/><path d="M276.05,104c-8.58-14.79-23.3-24.54-40-24.54s-31.14,9.54-39.76,24" style="fill:none;stroke:#000;stroke-width:2.5px"/><path d="M265.8,109.21C259.09,98.78,248.25,92,236,92S213,98.78,206.24,109.2" style="fill:none;stroke:#000;stroke-width:2.5px"/><path d="M256.74,116.45c-4.7-7.2-12.23-11.86-20.72-11.86s-16,4.66-20.73,11.86" style="fill:none;stroke:#000;stroke-width:2.5px"/><path d="M248.88,125.73c-2.53-5.1-7.35-8.55-12.86-8.55s-10.33,3.44-12.86,8.54" style="fill:none;stroke:#000;stroke-width:2.5px"/><path d="M405.42,101C395.29,80.62,376.07,66.86,354,66.86S312.76,80.57,302.6,101" style="fill:none;stroke:#000;stroke-width:2.5px"/><path d="M394.06,104c-8.58-14.79-23.3-24.54-40-24.54s-31.14,9.54-39.76,24" style="fill:none;stroke:#000;stroke-width:2.5px"/><path d="M383.81,109.21C377.1,98.78,366.26,92,354,92S331,98.78,324.25,109.2" style="fill:none;stroke:#000;stroke-width:2.5px"/><path d="M374.75,116.45c-4.7-7.2-12.23-11.86-20.72-11.86s-16,4.66-20.73,11.86" style="fill:none;stroke:#000;stroke-width:2.5px"/><path d="M366.89,125.73c-2.54-5.1-7.35-8.55-12.86-8.55s-10.33,3.44-12.86,8.54" style="fill:none;stroke:#000;stroke-width:2.5px"/><path d="M523.43,101C513.3,80.62,494.08,66.86,472,66.86S430.78,80.57,420.65,101" style="fill:none;stroke:#000;stroke-width:2.5px"/><path d="M512.07,104c-8.58-14.79-23.31-24.54-40-24.54s-31.14,9.54-39.76,24" style="fill:none;stroke:#000;stroke-width:2.5px"/><path d="M501.81,109.21C495.11,98.78,484.26,92,472,92S449,98.78,442.26,109.2" style="fill:none;stroke:#000;stroke-width:2.5px"/><path d="M492.76,116.45c-4.7-7.2-12.24-11.86-20.72-11.86s-16,4.66-20.73,11.86" style="fill:none;stroke:#000;stroke-width:2.5px"/><path d="M484.89,125.73c-2.53-5.1-7.34-8.55-12.85-8.55s-10.32,3.44-12.85,8.54" style="fill:none;stroke:#000;stroke-width:2.5px"/><path d="M51.39,168.11C41.27,147.73,22.05,134,0,134s-41.26,13.72-51.4,34.1" style="fill:none;stroke:#000;stroke-width:2.5px"/><path d="M40,171.09c-8.57-14.78-23.3-24.53-40-24.53-16.55,0-31.14,9.54-39.75,24.05" style="fill:none;stroke:#000;stroke-width:2.5px"/><path d="M29.78,176.36C23.07,165.93,12.23,159.15,0,159.15s-23.07,6.78-29.78,17.21" style="fill:none;stroke:#000;stroke-width:2.5px"/><path d="M20.73,183.6C16,176.41,8.49,171.74,0,171.74s-16,4.67-20.73,11.87" style="fill:none;stroke:#000;stroke-width:2.5px"/><path d="M12.86,192.88c-2.53-5.1-7.34-8.55-12.86-8.55s-10.32,3.44-12.85,8.54" style="fill:none;stroke:#000;stroke-width:2.5px"/><path d="M169.4,168.11C159.27,147.73,140.05,134,118,134S76.75,147.72,66.6,168.1" style="fill:none;stroke:#000;stroke-width:2.5px"/><path d="M158,171.09c-8.57-14.78-23.3-24.53-40-24.53S86.9,156.1,78.29,170.61" style="fill:none;stroke:#000;stroke-width:2.5px"/><path d="M147.79,176.36c-6.71-10.43-17.55-17.21-29.78-17.21s-23.07,6.78-29.78,17.21" style="fill:none;stroke:#000;stroke-width:2.5px"/><path d="M138.73,183.6c-4.7-7.19-12.23-11.86-20.72-11.86s-16,4.67-20.73,11.87" style="fill:none;stroke:#000;stroke-width:2.5px"/><path d="M130.87,192.88c-2.54-5.1-7.34-8.55-12.86-8.55s-10.32,3.44-12.85,8.54" style="fill:none;stroke:#000;stroke-width:2.5px"/><path d="M287.41,168.11C277.29,147.73,258.06,134,236,134s-41.26,13.72-51.42,34.1" style="fill:none;stroke:#000;stroke-width:2.5px"/><path d="M276.05,171.09c-8.58-14.78-23.3-24.53-40-24.53s-31.14,9.54-39.76,24.05" style="fill:none;stroke:#000;stroke-width:2.5px"/><path d="M265.8,176.36c-6.71-10.43-17.55-17.21-29.78-17.21s-23.07,6.78-29.78,17.21" style="fill:none;stroke:#000;stroke-width:2.5px"/><path d="M256.74,183.6c-4.7-7.19-12.23-11.86-20.72-11.86s-16,4.67-20.73,11.87" style="fill:none;stroke:#000;stroke-width:2.5px"/><path d="M248.88,192.88c-2.53-5.1-7.35-8.55-12.86-8.55s-10.33,3.44-12.86,8.54" style="fill:none;stroke:#000;stroke-width:2.5px"/><path d="M405.42,168.11C395.29,147.73,376.07,134,354,134s-41.27,13.72-51.43,34.1" style="fill:none;stroke:#000;stroke-width:2.5px"/><path d="M394.06,171.09c-8.58-14.78-23.3-24.53-40-24.53s-31.14,9.54-39.76,24.05" style="fill:none;stroke:#000;stroke-width:2.5px"/><path d="M383.81,176.36c-6.71-10.43-17.55-17.21-29.78-17.21s-23.07,6.78-29.78,17.21" style="fill:none;stroke:#000;stroke-width:2.5px"/><path d="M374.75,183.6c-4.7-7.19-12.23-11.86-20.72-11.86s-16,4.67-20.73,11.87" style="fill:none;stroke:#000;stroke-width:2.5px"/><path d="M366.89,192.88c-2.54-5.1-7.35-8.55-12.86-8.55s-10.33,3.44-12.86,8.54" style="fill:none;stroke:#000;stroke-width:2.5px"/><path d="M523.43,168.11C513.3,147.73,494.08,134,472,134s-41.26,13.75-51.39,34.13" style="fill:none;stroke:#000;stroke-width:2.5px"/><path d="M512.07,171.09c-8.58-14.78-23.31-24.53-40-24.53s-31.14,9.54-39.76,24.05" style="fill:none;stroke:#000;stroke-width:2.5px"/><path d="M501.81,176.36c-6.7-10.43-17.55-17.21-29.77-17.21s-23.07,6.78-29.78,17.21" style="fill:none;stroke:#000;stroke-width:2.5px"/><path d="M492.76,183.6c-4.7-7.19-12.24-11.86-20.72-11.86s-16,4.67-20.73,11.87" style="fill:none;stroke:#000;stroke-width:2.5px"/><path d="M484.89,192.88c-2.53-5.1-7.34-8.55-12.85-8.55s-10.32,3.44-12.85,8.54" style="fill:none;stroke:#000;stroke-width:2.5px"/><path d="M51.39,235.26C41.27,214.88,22.05,201.12,0,201.12s-41.26,13.75-51.4,34.13" style="fill:none;stroke:#000;stroke-width:2.5px"/><path d="M40,238.25c-8.57-14.79-23.3-24.54-40-24.54-16.55,0-31.14,9.54-39.75,24" style="fill:none;stroke:#000;stroke-width:2.5px"/><path d="M29.78,243.51C23.07,233.08,12.23,226.3,0,226.3s-23.07,6.77-29.78,17.2" style="fill:none;stroke:#000;stroke-width:2.5px"/><path d="M20.73,250.75C16,243.55,8.49,238.89,0,238.89s-16,4.66-20.73,11.87" style="fill:none;stroke:#000;stroke-width:2.5px"/><path d="M12.86,260c-2.53-5.11-7.34-8.56-12.86-8.56s-10.32,3.44-12.85,8.54" style="fill:none;stroke:#000;stroke-width:2.5px"/><path d="M169.4,235.26c-10.13-20.38-29.35-34.14-51.39-34.14S76.75,214.87,66.6,235.25" style="fill:none;stroke:#000;stroke-width:2.5px"/><path d="M158,238.25c-8.57-14.79-23.3-24.54-40-24.54s-31.14,9.54-39.75,24" style="fill:none;stroke:#000;stroke-width:2.5px"/><path d="M147.79,243.51c-6.71-10.43-17.55-17.21-29.78-17.21s-23.07,6.77-29.78,17.2" style="fill:none;stroke:#000;stroke-width:2.5px"/><path d="M138.73,250.75c-4.7-7.2-12.23-11.86-20.72-11.86s-16,4.66-20.73,11.87" style="fill:none;stroke:#000;stroke-width:2.5px"/><path d="M130.87,260c-2.54-5.11-7.34-8.56-12.86-8.56s-10.32,3.44-12.85,8.54" style="fill:none;stroke:#000;stroke-width:2.5px"/><path d="M287.41,235.26c-10.12-20.38-29.35-34.14-51.39-34.14s-41.26,13.75-51.42,34.13" style="fill:none;stroke:#000;stroke-width:2.5px"/><path d="M276.05,238.25c-8.58-14.79-23.3-24.54-40-24.54s-31.14,9.54-39.76,24" style="fill:none;stroke:#000;stroke-width:2.5px"/><path d="M265.8,243.51c-6.71-10.43-17.55-17.21-29.78-17.21s-23.07,6.77-29.78,17.2" style="fill:none;stroke:#000;stroke-width:2.5px"/><path d="M256.74,250.75c-4.7-7.2-12.23-11.86-20.72-11.86s-16,4.66-20.73,11.87" style="fill:none;stroke:#000;stroke-width:2.5px"/><path d="M248.88,260c-2.53-5.11-7.35-8.56-12.86-8.56s-10.33,3.44-12.86,8.54" style="fill:none;stroke:#000;stroke-width:2.5px"/><path d="M405.42,235.26c-10.13-20.38-29.35-34.14-51.39-34.14s-41.27,13.75-51.43,34.13" style="fill:none;stroke:#000;stroke-width:2.5px"/><path d="M394.06,238.25c-8.58-14.79-23.3-24.54-40-24.54s-31.14,9.54-39.76,24" style="fill:none;stroke:#000;stroke-width:2.5px"/><path d="M383.81,243.51C377.1,233.08,366.26,226.3,354,226.3s-23.07,6.77-29.78,17.2" style="fill:none;stroke:#000;stroke-width:2.5px"/><path d="M374.75,250.75c-4.7-7.2-12.23-11.86-20.72-11.86s-16,4.66-20.73,11.87" style="fill:none;stroke:#000;stroke-width:2.5px"/><path d="M366.89,260c-2.54-5.11-7.35-8.56-12.86-8.56s-10.33,3.44-12.86,8.54" style="fill:none;stroke:#000;stroke-width:2.5px"/><path d="M523.43,235.26c-10.13-20.38-29.35-34.14-51.39-34.14s-41.26,13.75-51.39,34.13" style="fill:none;stroke:#000;stroke-width:2.5px"/><path d="M512.07,238.25c-8.58-14.79-23.31-24.54-40-24.54s-31.14,9.54-39.76,24" style="fill:none;stroke:#000;stroke-width:2.5px"/><path d="M501.81,243.51c-6.7-10.43-17.55-17.21-29.77-17.21s-23.07,6.77-29.78,17.2" style="fill:none;stroke:#000;stroke-width:2.5px"/><path d="M492.76,250.75c-4.7-7.2-12.24-11.86-20.72-11.86s-16,4.66-20.73,11.87" style="fill:none;stroke:#000;stroke-width:2.5px"/><path d="M484.89,260c-2.53-5.11-7.34-8.56-12.85-8.56s-10.32,3.44-12.85,8.54" style="fill:none;stroke:#000;stroke-width:2.5px"/><path d="M51.39,302.41C41.27,282,22.05,268.27,0,268.27S-41.26,282-51.4,302.4" style="fill:none;stroke:#000;stroke-width:2.5px"/><path d="M40,305.4c-8.57-14.79-23.3-24.54-40-24.54-16.55,0-31.14,9.54-39.75,24.05" style="fill:none;stroke:#000;stroke-width:2.5px"/><path d="M29.78,310.66C23.07,300.23,12.23,293.45,0,293.45s-23.07,6.77-29.78,17.21" style="fill:none;stroke:#000;stroke-width:2.5px"/><path d="M20.73,317.91C16,310.71,8.49,306,0,306s-16,4.67-20.73,11.87" style="fill:none;stroke:#000;stroke-width:2.5px"/><path d="M12.86,327.19c-2.53-5.11-7.34-8.56-12.86-8.56s-10.32,3.45-12.85,8.54" style="fill:none;stroke:#000;stroke-width:2.5px"/><path d="M169.4,302.41C159.27,282,140.05,268.27,118,268.27S76.75,282,66.6,302.4" style="fill:none;stroke:#000;stroke-width:2.5px"/><path d="M158,305.4c-8.57-14.79-23.3-24.54-40-24.54S86.9,290.4,78.29,304.91" style="fill:none;stroke:#000;stroke-width:2.5px"/><path d="M147.79,310.66c-6.71-10.43-17.55-17.21-29.78-17.21s-23.07,6.77-29.78,17.21" style="fill:none;stroke:#000;stroke-width:2.5px"/><path d="M138.73,317.91C134,310.71,126.5,306,118,306s-16,4.67-20.73,11.87" style="fill:none;stroke:#000;stroke-width:2.5px"/><path d="M130.87,327.19c-2.54-5.11-7.34-8.56-12.86-8.56s-10.32,3.45-12.85,8.54" style="fill:none;stroke:#000;stroke-width:2.5px"/><path d="M287.41,302.41C277.29,282,258.06,268.27,236,268.27S194.76,282,184.6,302.4" style="fill:none;stroke:#000;stroke-width:2.5px"/><path d="M276.05,305.4c-8.58-14.79-23.3-24.54-40-24.54s-31.14,9.54-39.76,24.05" style="fill:none;stroke:#000;stroke-width:2.5px"/><path d="M265.8,310.66c-6.71-10.43-17.55-17.21-29.78-17.21s-23.07,6.77-29.78,17.21" style="fill:none;stroke:#000;stroke-width:2.5px"/><path d="M256.74,317.91C252,310.71,244.51,306,236,306s-16,4.67-20.73,11.87" style="fill:none;stroke:#000;stroke-width:2.5px"/><path d="M248.88,327.19c-2.53-5.11-7.35-8.56-12.86-8.56s-10.33,3.45-12.86,8.54" style="fill:none;stroke:#000;stroke-width:2.5px"/><path d="M405.42,302.41C395.29,282,376.07,268.27,354,268.27S312.76,282,302.6,302.4" style="fill:none;stroke:#000;stroke-width:2.5px"/><path d="M394.06,305.4c-8.58-14.79-23.3-24.54-40-24.54s-31.14,9.54-39.76,24.05" style="fill:none;stroke:#000;stroke-width:2.5px"/><path d="M383.81,310.66c-6.71-10.43-17.55-17.21-29.78-17.21s-23.07,6.77-29.78,17.21" style="fill:none;stroke:#000;stroke-width:2.5px"/><path d="M374.75,317.91C370.05,310.71,362.52,306,354,306s-16,4.67-20.73,11.87" style="fill:none;stroke:#000;stroke-width:2.5px"/><path d="M366.89,327.19c-2.54-5.11-7.35-8.56-12.86-8.56s-10.33,3.45-12.86,8.54" style="fill:none;stroke:#000;stroke-width:2.5px"/><path d="M523.43,302.41C513.3,282,494.08,268.27,472,268.27S430.78,282,420.65,302.4" style="fill:none;stroke:#000;stroke-width:2.5px"/><path d="M512.07,305.4c-8.58-14.79-23.31-24.54-40-24.54s-31.14,9.54-39.76,24.05" style="fill:none;stroke:#000;stroke-width:2.5px"/><path d="M501.81,310.66c-6.7-10.43-17.55-17.21-29.77-17.21s-23.07,6.77-29.78,17.21" style="fill:none;stroke:#000;stroke-width:2.5px"/><path d="M492.76,317.91C488.06,310.71,480.52,306,472,306s-16,4.67-20.73,11.87" style="fill:none;stroke:#000;stroke-width:2.5px"/><path d="M484.89,327.19c-2.53-5.11-7.34-8.56-12.85-8.56s-10.32,3.45-12.85,8.54" style="fill:none;stroke:#000;stroke-width:2.5px"/><path d="M51.39,369.56C41.27,349.18,22.05,335.42,0,335.42s-41.26,13.76-51.4,34.13" style="fill:none;stroke:#000;stroke-width:2.5px"/><path d="M40,372.54C31.46,357.76,16.73,348,0,348c-16.55,0-31.14,9.54-39.75,24.05" style="fill:none;stroke:#000;stroke-width:2.5px"/><path d="M29.78,377.81C23.07,367.38,12.23,360.6,0,360.6s-23.07,6.78-29.78,17.2" style="fill:none;stroke:#000;stroke-width:2.5px"/><path d="M20.73,385.05C16,377.85,8.49,373.19,0,373.19s-16,4.66-20.73,11.87" style="fill:none;stroke:#000;stroke-width:2.5px"/><path d="M12.86,394.33c-2.53-5.1-7.34-8.55-12.86-8.55s-10.32,3.44-12.85,8.54" style="fill:none;stroke:#000;stroke-width:2.5px"/><path d="M169.4,369.56c-10.13-20.38-29.35-34.14-51.39-34.14S76.75,349.18,66.6,369.55" style="fill:none;stroke:#000;stroke-width:2.5px"/><path d="M158,372.54c-8.57-14.78-23.3-24.53-40-24.53s-31.14,9.54-39.75,24.05" style="fill:none;stroke:#000;stroke-width:2.5px"/><path d="M147.79,377.81c-6.71-10.43-17.55-17.21-29.78-17.21s-23.07,6.78-29.78,17.2" style="fill:none;stroke:#000;stroke-width:2.5px"/><path d="M138.73,385.05c-4.7-7.2-12.23-11.86-20.72-11.86s-16,4.66-20.73,11.87" style="fill:none;stroke:#000;stroke-width:2.5px"/><path d="M130.87,394.33c-2.54-5.1-7.34-8.55-12.86-8.55s-10.32,3.44-12.85,8.54" style="fill:none;stroke:#000;stroke-width:2.5px"/><path d="M287.41,369.56c-10.12-20.38-29.35-34.14-51.39-34.14s-41.26,13.76-51.42,34.13" style="fill:none;stroke:#000;stroke-width:2.5px"/><path d="M276.05,372.54c-8.58-14.78-23.3-24.53-40-24.53s-31.14,9.54-39.76,24.05" style="fill:none;stroke:#000;stroke-width:2.5px"/><path d="M265.8,377.81c-6.71-10.43-17.55-17.21-29.78-17.21s-23.07,6.78-29.78,17.2" style="fill:none;stroke:#000;stroke-width:2.5px"/><path d="M256.74,385.05c-4.7-7.2-12.23-11.86-20.72-11.86s-16,4.66-20.73,11.87" style="fill:none;stroke:#000;stroke-width:2.5px"/><path d="M248.88,394.33c-2.53-5.1-7.35-8.55-12.86-8.55s-10.33,3.44-12.86,8.54" style="fill:none;stroke:#000;stroke-width:2.5px"/><path d="M405.42,369.56c-10.13-20.38-29.35-34.14-51.39-34.14s-41.27,13.76-51.43,34.13" style="fill:none;stroke:#000;stroke-width:2.5px"/><path d="M394.06,372.54c-8.58-14.78-23.3-24.53-40-24.53s-31.14,9.54-39.76,24.05" style="fill:none;stroke:#000;stroke-width:2.5px"/><path d="M383.81,377.81C377.1,367.38,366.26,360.6,354,360.6s-23.07,6.78-29.78,17.2" style="fill:none;stroke:#000;stroke-width:2.5px"/><path d="M374.75,385.05c-4.7-7.2-12.23-11.86-20.72-11.86s-16,4.66-20.73,11.87" style="fill:none;stroke:#000;stroke-width:2.5px"/><path d="M366.89,394.33c-2.54-5.1-7.35-8.55-12.86-8.55s-10.33,3.44-12.86,8.54" style="fill:none;stroke:#000;stroke-width:2.5px"/><path d="M523.43,369.56c-10.13-20.38-29.35-34.14-51.39-34.14s-41.26,13.76-51.39,34.13" style="fill:none;stroke:#000;stroke-width:2.5px"/><path d="M512.07,372.54c-8.58-14.78-23.31-24.53-40-24.53s-31.14,9.54-39.76,24.05" style="fill:none;stroke:#000;stroke-width:2.5px"/><path d="M501.81,377.81c-6.7-10.43-17.55-17.21-29.77-17.21s-23.07,6.78-29.78,17.2" style="fill:none;stroke:#000;stroke-width:2.5px"/><path d="M492.76,385.05c-4.7-7.2-12.24-11.86-20.72-11.86s-16,4.66-20.73,11.87" style="fill:none;stroke:#000;stroke-width:2.5px"/><path d="M484.89,394.33c-2.53-5.1-7.34-8.55-12.85-8.55s-10.32,3.44-12.85,8.54" style="fill:none;stroke:#000;stroke-width:2.5px"/><path d="M51.39,436.71C41.27,416.33,22.05,402.57,0,402.57s-41.26,13.75-51.4,34.13" style="fill:none;stroke:#000;stroke-width:2.5px"/><path d="M40,439.69c-8.57-14.78-23.3-24.53-40-24.53-16.55,0-31.14,9.54-39.75,24" style="fill:none;stroke:#000;stroke-width:2.5px"/><path d="M29.78,445C23.07,434.56,12.23,427.78,0,427.78s-23.07,6.77-29.78,17.2" style="fill:none;stroke:#000;stroke-width:2.5px"/><path d="M20.73,452.2C16,445,8.49,440.34,0,440.34S-16,445-20.73,452.2" style="fill:none;stroke:#000;stroke-width:2.5px"/><path d="M12.86,461.49c-2.53-5.11-7.34-8.56-12.86-8.56s-10.32,3.45-12.85,8.55" style="fill:none;stroke:#000;stroke-width:2.5px"/><path d="M169.4,436.71c-10.13-20.38-29.35-34.14-51.39-34.14S76.75,416.32,66.6,436.7" style="fill:none;stroke:#000;stroke-width:2.5px"/><path d="M158,439.69c-8.57-14.78-23.3-24.53-40-24.53s-31.14,9.54-39.75,24" style="fill:none;stroke:#000;stroke-width:2.5px"/><path d="M147.79,445c-6.71-10.44-17.55-17.22-29.78-17.22S94.94,434.55,88.23,445" style="fill:none;stroke:#000;stroke-width:2.5px"/><path d="M138.73,452.2C134,445,126.5,440.34,118,440.34S102,445,97.28,452.2" style="fill:none;stroke:#000;stroke-width:2.5px"/><path d="M130.87,461.49c-2.54-5.11-7.34-8.56-12.86-8.56s-10.32,3.45-12.85,8.55" style="fill:none;stroke:#000;stroke-width:2.5px"/><path d="M287.41,436.71c-10.12-20.38-29.35-34.14-51.39-34.14s-41.26,13.75-51.42,34.13" style="fill:none;stroke:#000;stroke-width:2.5px"/><path d="M276.05,439.69c-8.58-14.78-23.3-24.53-40-24.53s-31.14,9.54-39.76,24" style="fill:none;stroke:#000;stroke-width:2.5px"/><path d="M265.8,445c-6.71-10.44-17.55-17.22-29.78-17.22S213,434.55,206.24,445" style="fill:none;stroke:#000;stroke-width:2.5px"/><path d="M256.74,452.2C252,445,244.51,440.34,236,440.34S220,445,215.29,452.2" style="fill:none;stroke:#000;stroke-width:2.5px"/><path d="M248.88,461.49c-2.53-5.11-7.35-8.56-12.86-8.56s-10.33,3.45-12.86,8.55" style="fill:none;stroke:#000;stroke-width:2.5px"/><path d="M405.42,436.71c-10.13-20.38-29.35-34.14-51.39-34.14s-41.27,13.75-51.43,34.13" style="fill:none;stroke:#000;stroke-width:2.5px"/><path d="M394.06,439.69c-8.58-14.78-23.3-24.53-40-24.53s-31.14,9.54-39.76,24" style="fill:none;stroke:#000;stroke-width:2.5px"/><path d="M383.81,445c-6.71-10.44-17.55-17.22-29.78-17.22S331,434.55,324.25,445" style="fill:none;stroke:#000;stroke-width:2.5px"/><path d="M374.75,452.2c-4.7-7.2-12.23-11.86-20.72-11.86S338,445,333.3,452.2" style="fill:none;stroke:#000;stroke-width:2.5px"/><path d="M366.89,461.49c-2.54-5.11-7.35-8.56-12.86-8.56s-10.33,3.45-12.86,8.55" style="fill:none;stroke:#000;stroke-width:2.5px"/><path d="M523.43,436.71c-10.13-20.38-29.35-34.14-51.39-34.14s-41.26,13.75-51.39,34.13" style="fill:none;stroke:#000;stroke-width:2.5px"/><path d="M512.07,439.69c-8.58-14.78-23.31-24.53-40-24.53s-31.14,9.54-39.76,24" style="fill:none;stroke:#000;stroke-width:2.5px"/><path d="M501.81,445c-6.7-10.44-17.55-17.22-29.77-17.22S449,434.55,442.26,445" style="fill:none;stroke:#000;stroke-width:2.5px"/><path d="M492.76,452.2c-4.7-7.2-12.24-11.86-20.72-11.86S456,445,451.31,452.2" style="fill:none;stroke:#000;stroke-width:2.5px"/><path d="M484.89,461.49c-2.53-5.11-7.34-8.56-12.85-8.56s-10.32,3.45-12.85,8.55" style="fill:none;stroke:#000;stroke-width:2.5px"/><path d="M51.39,503.86C41.27,483.48,22.05,469.72,0,469.72s-41.26,13.75-51.4,34.13" style="fill:none;stroke:#000;stroke-width:2.5px"/><path d="M169.4,503.86c-10.13-20.38-29.35-34.14-51.39-34.14S76.75,483.47,66.6,503.85" style="fill:none;stroke:#000;stroke-width:2.5px"/><path d="M287.41,503.86c-10.12-20.38-29.35-34.14-51.39-34.14s-41.26,13.75-51.42,34.13" style="fill:none;stroke:#000;stroke-width:2.5px"/><path d="M405.42,503.86c-10.13-20.38-29.35-34.14-51.39-34.14s-41.27,13.75-51.43,34.13" style="fill:none;stroke:#000;stroke-width:2.5px"/><path d="M523.43,503.86c-10.13-20.38-29.35-34.14-51.39-34.14s-41.26,13.75-51.39,34.13" style="fill:none;stroke:#000;stroke-width:2.5px"/><path d="M110.4.24C100.27-20.15,81.05-33.91,59-33.91S17.74-20.15,7.6.23" style="fill:none;stroke:#000;stroke-width:2.5px"/><path d="M99,3.22C90.46-11.56,75.73-21.31,59-21.31c-16.54,0-31.13,9.54-39.75,24" style="fill:none;stroke:#000;stroke-width:2.5px"/><path d="M88.78,8.49C82.08-1.95,71.23-8.73,59-8.73S35.94-1.95,29.23,8.48" style="fill:none;stroke:#000;stroke-width:2.5px"/><path d="M79.73,15.73C75,8.53,67.49,3.87,59,3.87S43,8.53,38.28,15.73" style="fill:none;stroke:#000;stroke-width:2.5px"/><path d="M71.86,25c-2.53-5.11-7.34-8.55-12.86-8.55S48.68,19.9,46.15,25" style="fill:none;stroke:#000;stroke-width:2.5px"/><path d="M228.41.24C218.28-20.15,199.06-33.91,177-33.91S135.75-20.15,125.6.23" style="fill:none;stroke:#000;stroke-width:2.5px"/><path d="M217.05,3.22c-8.58-14.78-23.31-24.53-40-24.53s-31.14,9.54-39.75,24" style="fill:none;stroke:#000;stroke-width:2.5px"/><path d="M206.8,8.49C200.08-1.95,189.24-8.73,177-8.73S153.94-1.95,147.24,8.48" style="fill:none;stroke:#000;stroke-width:2.5px"/><path d="M197.74,15.73C193,8.53,185.5,3.87,177,3.87s-16,4.66-20.72,11.86" style="fill:none;stroke:#000;stroke-width:2.5px"/><path d="M189.87,25c-2.53-5.11-7.34-8.55-12.86-8.55S166.69,19.9,164.16,25" style="fill:none;stroke:#000;stroke-width:2.5px"/><path d="M346.41.24C336.29-20.15,317.06-33.91,295-33.91S253.76-20.15,243.6.23" style="fill:none;stroke:#000;stroke-width:2.5px"/><path d="M335.05,3.22c-8.57-14.78-23.3-24.53-40-24.53s-31.13,9.54-39.75,24" style="fill:none;stroke:#000;stroke-width:2.5px"/><path d="M324.8,8.49C318.09-1.95,307.25-8.73,295-8.73S272-1.95,265.24,8.48" style="fill:none;stroke:#000;stroke-width:2.5px"/><path d="M315.75,15.73C311,8.53,303.51,3.87,295,3.87s-16,4.66-20.73,11.86" style="fill:none;stroke:#000;stroke-width:2.5px"/><path d="M307.88,25c-2.53-5.11-7.34-8.55-12.86-8.55S284.7,19.9,282.17,25" style="fill:none;stroke:#000;stroke-width:2.5px"/><path d="M464.43.24C454.3-20.15,435.07-33.91,413-33.91S371.77-20.15,361.6.23" style="fill:none;stroke:#000;stroke-width:2.5px"/><path d="M453.07,3.22c-8.58-14.78-23.31-24.53-40-24.53s-31.14,9.54-39.75,24" style="fill:none;stroke:#000;stroke-width:2.5px"/><path d="M442.81,8.49C436.1-1.95,425.27-8.73,413-8.73S390-1.95,383.25,8.48" style="fill:none;stroke:#000;stroke-width:2.5px"/><path d="M433.76,15.73C429.05,8.53,421.52,3.87,413,3.87s-16,4.66-20.72,11.86" style="fill:none;stroke:#000;stroke-width:2.5px"/><path d="M425.89,25c-2.53-5.11-7.34-8.55-12.86-8.55S402.71,19.9,400.18,25" style="fill:none;stroke:#000;stroke-width:2.5px"/><path d="M110.4,67.39C100.27,47,81.05,33.24,59,33.24S17.74,47,7.6,67.37" style="fill:none;stroke:#000;stroke-width:2.5px"/><path d="M99,70.37C90.46,55.59,75.73,45.83,59,45.83c-16.54,0-31.13,9.55-39.75,24.06" style="fill:none;stroke:#000;stroke-width:2.5px"/><path d="M88.78,75.64C82.08,65.2,71.23,58.42,59,58.42S35.94,65.2,29.23,75.63" style="fill:none;stroke:#000;stroke-width:2.5px"/><path d="M79.73,82.88C75,75.68,67.49,71,59,71S43,75.67,38.28,82.87" style="fill:none;stroke:#000;stroke-width:2.5px"/><path d="M71.86,92.16C69.33,87.05,64.52,83.6,59,83.6s-10.32,3.45-12.85,8.54" style="fill:none;stroke:#000;stroke-width:2.5px"/><path d="M228.41,67.39C218.28,47,199.06,33.24,177,33.24S135.75,47,125.6,67.37" style="fill:none;stroke:#000;stroke-width:2.5px"/><path d="M217.05,70.37c-8.58-14.78-23.31-24.54-40-24.54s-31.14,9.55-39.75,24.06" style="fill:none;stroke:#000;stroke-width:2.5px"/><path d="M206.8,75.64C200.08,65.2,189.24,58.42,177,58.42s-23.07,6.78-29.77,17.21" style="fill:none;stroke:#000;stroke-width:2.5px"/><path d="M197.74,82.88C193,75.68,185.5,71,177,71s-16,4.67-20.72,11.87" style="fill:none;stroke:#000;stroke-width:2.5px"/><path d="M189.87,92.16c-2.53-5.11-7.34-8.56-12.86-8.56s-10.32,3.45-12.85,8.54" style="fill:none;stroke:#000;stroke-width:2.5px"/><path d="M346.41,67.39C336.29,47,317.06,33.24,295,33.24S253.76,47,243.6,67.37" style="fill:none;stroke:#000;stroke-width:2.5px"/><path d="M335.05,70.37c-8.57-14.78-23.3-24.54-40-24.54s-31.13,9.55-39.75,24.06" style="fill:none;stroke:#000;stroke-width:2.5px"/><path d="M324.8,75.64C318.09,65.2,307.25,58.42,295,58.42S272,65.2,265.24,75.63" style="fill:none;stroke:#000;stroke-width:2.5px"/><path d="M315.75,82.88C311,75.68,303.51,71,295,71s-16,4.67-20.73,11.87" style="fill:none;stroke:#000;stroke-width:2.5px"/><path d="M307.88,92.16c-2.53-5.11-7.34-8.56-12.86-8.56s-10.32,3.45-12.85,8.54" style="fill:none;stroke:#000;stroke-width:2.5px"/><path d="M464.43,67.39C454.3,47,435.07,33.24,413,33.24S371.77,47,361.6,67.37" style="fill:none;stroke:#000;stroke-width:2.5px"/><path d="M453.07,70.37c-8.58-14.78-23.31-24.54-40-24.54s-31.14,9.55-39.75,24.06" style="fill:none;stroke:#000;stroke-width:2.5px"/><path d="M442.81,75.64C436.1,65.2,425.27,58.42,413,58.42S390,65.2,383.25,75.63" style="fill:none;stroke:#000;stroke-width:2.5px"/><path d="M433.76,82.88C429.05,75.68,421.52,71,413,71s-16,4.67-20.72,11.87" style="fill:none;stroke:#000;stroke-width:2.5px"/><path d="M425.89,92.16c-2.53-5.11-7.34-8.56-12.86-8.56s-10.32,3.45-12.85,8.54" style="fill:none;stroke:#000;stroke-width:2.5px"/><path d="M110.4,134.54c-10.13-20.39-29.35-34.15-51.4-34.15S17.74,114.15,7.6,134.52" style="fill:none;stroke:#000;stroke-width:2.5px"/><path d="M99,137.52C90.46,122.74,75.73,113,59,113,42.5,113,27.91,122.53,19.29,137" style="fill:none;stroke:#000;stroke-width:2.5px"/><path d="M88.78,142.79c-6.7-10.44-17.55-17.22-29.78-17.22s-23.06,6.78-29.77,17.21" style="fill:none;stroke:#000;stroke-width:2.5px"/><path d="M79.73,150C75,142.8,67.49,138.14,59,138.14S43,142.8,38.28,150" style="fill:none;stroke:#000;stroke-width:2.5px"/><path d="M71.86,159.31c-2.53-5.11-7.34-8.55-12.86-8.55s-10.32,3.44-12.85,8.54" style="fill:none;stroke:#000;stroke-width:2.5px"/><path d="M228.41,134.54c-10.13-20.39-29.35-34.15-51.4-34.15s-41.26,13.76-51.41,34.13" style="fill:none;stroke:#000;stroke-width:2.5px"/><path d="M217.05,137.52c-8.58-14.78-23.31-24.54-40-24.54S145.91,122.53,137.3,137" style="fill:none;stroke:#000;stroke-width:2.5px"/><path d="M206.8,142.79c-6.72-10.44-17.56-17.22-29.79-17.22s-23.07,6.78-29.77,17.21" style="fill:none;stroke:#000;stroke-width:2.5px"/><path d="M197.74,150C193,142.8,185.5,138.14,177,138.14S161,142.8,156.29,150" style="fill:none;stroke:#000;stroke-width:2.5px"/><path d="M189.87,159.31c-2.53-5.11-7.34-8.55-12.86-8.55s-10.32,3.44-12.85,8.54" style="fill:none;stroke:#000;stroke-width:2.5px"/><path d="M346.41,134.54c-10.12-20.39-29.35-34.15-51.39-34.15s-41.26,13.76-51.42,34.13" style="fill:none;stroke:#000;stroke-width:2.5px"/><path d="M335.05,137.52c-8.57-14.78-23.3-24.54-40-24.54S263.92,122.53,255.3,137" style="fill:none;stroke:#000;stroke-width:2.5px"/><path d="M324.8,142.79c-6.71-10.44-17.55-17.22-29.78-17.22s-23.06,6.78-29.78,17.21" style="fill:none;stroke:#000;stroke-width:2.5px"/><path d="M315.75,150c-4.71-7.2-12.24-11.86-20.73-11.86S279,142.8,274.29,150" style="fill:none;stroke:#000;stroke-width:2.5px"/><path d="M307.88,159.31c-2.53-5.11-7.34-8.55-12.86-8.55s-10.32,3.44-12.85,8.54" style="fill:none;stroke:#000;stroke-width:2.5px"/><path d="M464.43,134.54c-10.13-20.39-29.36-34.15-51.4-34.15s-41.26,13.76-51.43,34.13" style="fill:none;stroke:#000;stroke-width:2.5px"/><path d="M453.07,137.52c-8.58-14.78-23.31-24.54-40-24.54s-31.14,9.55-39.75,24.06" style="fill:none;stroke:#000;stroke-width:2.5px"/><path d="M442.81,142.79c-6.71-10.44-17.54-17.22-29.78-17.22s-23.07,6.78-29.78,17.21" style="fill:none;stroke:#000;stroke-width:2.5px"/><path d="M433.76,150c-4.71-7.2-12.24-11.86-20.73-11.86S397,142.8,392.31,150" style="fill:none;stroke:#000;stroke-width:2.5px"/><path d="M425.89,159.31c-2.53-5.11-7.34-8.55-12.86-8.55s-10.32,3.44-12.85,8.54" style="fill:none;stroke:#000;stroke-width:2.5px"/><path d="M110.4,201.68C100.27,181.3,81.05,167.54,59,167.54S17.74,181.3,7.6,201.68" style="fill:none;stroke:#000;stroke-width:2.5px"/><path d="M99,204.67c-8.58-14.78-23.31-24.54-40-24.54-16.54,0-31.13,9.55-39.75,24.06" style="fill:none;stroke:#000;stroke-width:2.5px"/><path d="M88.78,209.94C82.08,199.5,71.23,192.72,59,192.72s-23.06,6.78-29.77,17.21" style="fill:none;stroke:#000;stroke-width:2.5px"/><path d="M79.73,217.18C75,210,67.49,205.31,59,205.31S43,210,38.28,217.18" style="fill:none;stroke:#000;stroke-width:2.5px"/><path d="M71.86,226.46c-2.53-5.11-7.34-8.55-12.86-8.55s-10.32,3.44-12.85,8.54" style="fill:none;stroke:#000;stroke-width:2.5px"/><path d="M228.41,201.68c-10.13-20.38-29.35-34.14-51.4-34.14s-41.26,13.76-51.41,34.14" style="fill:none;stroke:#000;stroke-width:2.5px"/><path d="M217.05,204.67c-8.58-14.78-23.31-24.54-40-24.54s-31.14,9.55-39.75,24.06" style="fill:none;stroke:#000;stroke-width:2.5px"/><path d="M206.8,209.94c-6.72-10.44-17.56-17.22-29.79-17.22s-23.07,6.78-29.77,17.21" style="fill:none;stroke:#000;stroke-width:2.5px"/><path d="M197.74,217.18C193,210,185.5,205.31,177,205.31s-16,4.67-20.72,11.87" style="fill:none;stroke:#000;stroke-width:2.5px"/><path d="M189.87,226.46c-2.53-5.11-7.34-8.55-12.86-8.55s-10.32,3.44-12.85,8.54" style="fill:none;stroke:#000;stroke-width:2.5px"/><path d="M346.41,201.68c-10.12-20.38-29.35-34.14-51.39-34.14s-41.26,13.76-51.42,34.14" style="fill:none;stroke:#000;stroke-width:2.5px"/><path d="M335.05,204.67c-8.57-14.78-23.3-24.54-40-24.54s-31.13,9.55-39.75,24.06" style="fill:none;stroke:#000;stroke-width:2.5px"/><path d="M324.8,209.94c-6.71-10.44-17.55-17.22-29.78-17.22S272,199.5,265.24,209.93" style="fill:none;stroke:#000;stroke-width:2.5px"/><path d="M315.75,217.18C311,210,303.51,205.31,295,205.31s-16,4.67-20.73,11.87" style="fill:none;stroke:#000;stroke-width:2.5px"/><path d="M307.88,226.46c-2.53-5.11-7.34-8.55-12.86-8.55s-10.32,3.44-12.85,8.54" style="fill:none;stroke:#000;stroke-width:2.5px"/><path d="M464.43,201.68c-10.13-20.38-29.36-34.14-51.4-34.14s-41.26,13.76-51.43,34.14" style="fill:none;stroke:#000;stroke-width:2.5px"/><path d="M453.07,204.67c-8.58-14.78-23.31-24.54-40-24.54s-31.14,9.55-39.75,24.06" style="fill:none;stroke:#000;stroke-width:2.5px"/><path d="M442.81,209.94c-6.71-10.44-17.54-17.22-29.78-17.22S390,199.5,383.25,209.93" style="fill:none;stroke:#000;stroke-width:2.5px"/><path d="M433.76,217.18c-4.71-7.2-12.24-11.87-20.73-11.87s-16,4.67-20.72,11.87" style="fill:none;stroke:#000;stroke-width:2.5px"/><path d="M425.89,226.46c-2.53-5.11-7.34-8.55-12.86-8.55s-10.32,3.44-12.85,8.54" style="fill:none;stroke:#000;stroke-width:2.5px"/><path d="M110.4,268.84C100.27,248.45,81.05,234.7,59,234.7S17.74,248.45,7.6,268.83" style="fill:none;stroke:#000;stroke-width:2.5px"/><path d="M99,271.82C90.46,257,75.73,247.29,59,247.29c-16.54,0-31.13,9.54-39.75,24" style="fill:none;stroke:#000;stroke-width:2.5px"/><path d="M88.78,277.09c-6.7-10.44-17.55-17.22-29.78-17.22s-23.06,6.78-29.77,17.21" style="fill:none;stroke:#000;stroke-width:2.5px"/><path d="M79.73,284.33C75,277.13,67.49,272.46,59,272.46s-16,4.67-20.72,11.87" style="fill:none;stroke:#000;stroke-width:2.5px"/><path d="M71.86,293.61c-2.53-5.1-7.34-8.56-12.86-8.56s-10.32,3.45-12.85,8.55" style="fill:none;stroke:#000;stroke-width:2.5px"/><path d="M228.41,268.84c-10.13-20.39-29.35-34.14-51.4-34.14s-41.26,13.75-51.41,34.13" style="fill:none;stroke:#000;stroke-width:2.5px"/><path d="M217.05,271.82c-8.58-14.78-23.31-24.53-40-24.53s-31.14,9.54-39.75,24" style="fill:none;stroke:#000;stroke-width:2.5px"/><path d="M206.8,277.09c-6.72-10.44-17.56-17.22-29.79-17.22s-23.07,6.78-29.77,17.21" style="fill:none;stroke:#000;stroke-width:2.5px"/><path d="M197.74,284.33c-4.71-7.2-12.24-11.87-20.73-11.87s-16,4.67-20.72,11.87" style="fill:none;stroke:#000;stroke-width:2.5px"/><path d="M189.87,293.61c-2.53-5.1-7.34-8.56-12.86-8.56s-10.32,3.45-12.85,8.55" style="fill:none;stroke:#000;stroke-width:2.5px"/><path d="M346.41,268.84C336.29,248.45,317.06,234.7,295,234.7s-41.26,13.75-51.42,34.13" style="fill:none;stroke:#000;stroke-width:2.5px"/><path d="M335.05,271.82c-8.57-14.78-23.3-24.53-40-24.53s-31.13,9.54-39.75,24" style="fill:none;stroke:#000;stroke-width:2.5px"/><path d="M324.8,277.09c-6.71-10.44-17.55-17.22-29.78-17.22s-23.06,6.78-29.78,17.21" style="fill:none;stroke:#000;stroke-width:2.5px"/><path d="M315.75,284.33c-4.71-7.2-12.24-11.87-20.73-11.87s-16,4.67-20.73,11.87" style="fill:none;stroke:#000;stroke-width:2.5px"/><path d="M307.88,293.61c-2.53-5.1-7.34-8.56-12.86-8.56s-10.32,3.45-12.85,8.55" style="fill:none;stroke:#000;stroke-width:2.5px"/><path d="M464.43,268.84C454.3,248.45,435.07,234.7,413,234.7s-41.26,13.75-51.43,34.13" style="fill:none;stroke:#000;stroke-width:2.5px"/><path d="M453.07,271.82c-8.58-14.78-23.31-24.53-40-24.53s-31.14,9.54-39.75,24" style="fill:none;stroke:#000;stroke-width:2.5px"/><path d="M442.81,277.09c-6.71-10.44-17.54-17.22-29.78-17.22s-23.07,6.78-29.78,17.21" style="fill:none;stroke:#000;stroke-width:2.5px"/><path d="M433.76,284.33c-4.71-7.2-12.24-11.87-20.73-11.87s-16,4.67-20.72,11.87" style="fill:none;stroke:#000;stroke-width:2.5px"/><path d="M425.89,293.61c-2.53-5.1-7.34-8.56-12.86-8.56s-10.32,3.45-12.85,8.55" style="fill:none;stroke:#000;stroke-width:2.5px"/><path d="M110.4,336c-10.13-20.39-29.35-34.15-51.4-34.15S17.74,315.6,7.6,336" style="fill:none;stroke:#000;stroke-width:2.5px"/><path d="M99,339c-8.58-14.78-23.31-24.54-40-24.54-16.54,0-31.13,9.55-39.75,24.06" style="fill:none;stroke:#000;stroke-width:2.5px"/><path d="M88.78,344.24C82.08,333.8,71.23,327,59,327s-23.06,6.77-29.77,17.2" style="fill:none;stroke:#000;stroke-width:2.5px"/><path d="M79.73,351.48C75,344.28,67.49,339.62,59,339.62s-16,4.66-20.72,11.86" style="fill:none;stroke:#000;stroke-width:2.5px"/><path d="M71.86,360.76c-2.53-5.1-7.34-8.56-12.86-8.56s-10.32,3.45-12.85,8.55" style="fill:none;stroke:#000;stroke-width:2.5px"/><path d="M228.41,336c-10.13-20.39-29.35-34.15-51.4-34.15S135.75,315.6,125.6,336" style="fill:none;stroke:#000;stroke-width:2.5px"/><path d="M217.05,339c-8.58-14.78-23.31-24.54-40-24.54S145.91,324,137.3,338.52" style="fill:none;stroke:#000;stroke-width:2.5px"/><path d="M206.8,344.24C200.08,333.8,189.24,327,177,327s-23.07,6.77-29.77,17.2" style="fill:none;stroke:#000;stroke-width:2.5px"/><path d="M197.74,351.48c-4.71-7.2-12.24-11.86-20.73-11.86s-16,4.66-20.72,11.86" style="fill:none;stroke:#000;stroke-width:2.5px"/><path d="M189.87,360.76c-2.53-5.1-7.34-8.56-12.86-8.56s-10.32,3.45-12.85,8.55" style="fill:none;stroke:#000;stroke-width:2.5px"/><path d="M346.41,336c-10.12-20.39-29.35-34.15-51.39-34.15S253.76,315.6,243.6,336" style="fill:none;stroke:#000;stroke-width:2.5px"/><path d="M335.05,339c-8.57-14.78-23.3-24.54-40-24.54S263.92,324,255.3,338.52" style="fill:none;stroke:#000;stroke-width:2.5px"/><path d="M324.8,344.24C318.09,333.8,307.25,327,295,327s-23.06,6.77-29.78,17.2" style="fill:none;stroke:#000;stroke-width:2.5px"/><path d="M315.75,351.48c-4.71-7.2-12.24-11.86-20.73-11.86s-16,4.66-20.73,11.86" style="fill:none;stroke:#000;stroke-width:2.5px"/><path d="M307.88,360.76c-2.53-5.1-7.34-8.56-12.86-8.56s-10.32,3.45-12.85,8.55" style="fill:none;stroke:#000;stroke-width:2.5px"/><path d="M464.43,336c-10.13-20.39-29.36-34.15-51.4-34.15S371.77,315.6,361.6,336" style="fill:none;stroke:#000;stroke-width:2.5px"/><path d="M453.07,339c-8.58-14.78-23.31-24.54-40-24.54s-31.14,9.55-39.75,24.06" style="fill:none;stroke:#000;stroke-width:2.5px"/><path d="M442.81,344.24C436.1,333.8,425.27,327,413,327s-23.07,6.77-29.78,17.2" style="fill:none;stroke:#000;stroke-width:2.5px"/><path d="M433.76,351.48c-4.71-7.2-12.24-11.86-20.73-11.86s-16,4.66-20.72,11.86" style="fill:none;stroke:#000;stroke-width:2.5px"/><path d="M425.89,360.76c-2.53-5.1-7.34-8.56-12.86-8.56s-10.32,3.45-12.85,8.55" style="fill:none;stroke:#000;stroke-width:2.5px"/><path d="M110.4,403.13C100.27,382.75,81.05,369,59,369S17.74,382.75,7.6,403.12" style="fill:none;stroke:#000;stroke-width:2.5px"/><path d="M99,406.12c-8.58-14.79-23.31-24.54-40-24.54-16.54,0-31.13,9.54-39.75,24.06" style="fill:none;stroke:#000;stroke-width:2.5px"/><path d="M88.78,411.39C82.08,401,71.23,394.17,59,394.17S35.94,401,29.23,411.38" style="fill:none;stroke:#000;stroke-width:2.5px"/><path d="M79.73,418.63C75,411.43,67.49,406.76,59,406.76s-16,4.67-20.72,11.87" style="fill:none;stroke:#000;stroke-width:2.5px"/><path d="M71.86,427.91c-2.53-5.11-7.34-8.56-12.86-8.56s-10.32,3.45-12.85,8.55" style="fill:none;stroke:#000;stroke-width:2.5px"/><path d="M228.41,403.13C218.28,382.75,199.06,369,177,369s-41.26,13.75-51.41,34.12" style="fill:none;stroke:#000;stroke-width:2.5px"/><path d="M217.05,406.12c-8.58-14.79-23.31-24.54-40-24.54s-31.14,9.54-39.75,24.06" style="fill:none;stroke:#000;stroke-width:2.5px"/><path d="M206.8,411.39C200.08,401,189.24,394.17,177,394.17s-23.07,6.78-29.77,17.21" style="fill:none;stroke:#000;stroke-width:2.5px"/><path d="M197.74,418.63c-4.71-7.2-12.24-11.87-20.73-11.87s-16,4.67-20.72,11.87" style="fill:none;stroke:#000;stroke-width:2.5px"/><path d="M189.87,427.91c-2.53-5.11-7.34-8.56-12.86-8.56s-10.32,3.45-12.85,8.55" style="fill:none;stroke:#000;stroke-width:2.5px"/><path d="M346.41,403.13C336.29,382.75,317.06,369,295,369s-41.26,13.75-51.42,34.12" style="fill:none;stroke:#000;stroke-width:2.5px"/><path d="M335.05,406.12c-8.57-14.79-23.3-24.54-40-24.54s-31.13,9.54-39.75,24.06" style="fill:none;stroke:#000;stroke-width:2.5px"/><path d="M324.8,411.39C318.09,401,307.25,394.17,295,394.17S272,401,265.24,411.38" style="fill:none;stroke:#000;stroke-width:2.5px"/><path d="M315.75,418.63c-4.71-7.2-12.24-11.87-20.73-11.87s-16,4.67-20.73,11.87" style="fill:none;stroke:#000;stroke-width:2.5px"/><path d="M307.88,427.91c-2.53-5.11-7.34-8.56-12.86-8.56s-10.32,3.45-12.85,8.55" style="fill:none;stroke:#000;stroke-width:2.5px"/><path d="M464.43,403.13C454.3,382.75,435.07,369,413,369s-41.26,13.75-51.43,34.12" style="fill:none;stroke:#000;stroke-width:2.5px"/><path d="M453.07,406.12c-8.58-14.79-23.31-24.54-40-24.54s-31.14,9.54-39.75,24.06" style="fill:none;stroke:#000;stroke-width:2.5px"/><path d="M442.81,411.39C436.1,401,425.27,394.17,413,394.17S390,401,383.25,411.38" style="fill:none;stroke:#000;stroke-width:2.5px"/><path d="M433.76,418.63c-4.71-7.2-12.24-11.87-20.73-11.87s-16,4.67-20.72,11.87" style="fill:none;stroke:#000;stroke-width:2.5px"/><path d="M425.89,427.91c-2.53-5.11-7.34-8.56-12.86-8.56s-10.32,3.45-12.85,8.55" style="fill:none;stroke:#000;stroke-width:2.5px"/><path d="M110.4,470.29C100.27,449.9,81.05,436.14,59,436.14S17.74,449.9,7.6,470.27" style="fill:none;stroke:#000;stroke-width:2.5px"/><path d="M99,473.26c-8.58-14.77-23.31-24.53-40-24.53-16.54,0-31.13,9.55-39.75,24.06" style="fill:none;stroke:#000;stroke-width:2.5px"/><path d="M88.78,478.54C82.08,468.1,71.23,461.33,59,461.33s-23.06,6.77-29.77,17.2" style="fill:none;stroke:#000;stroke-width:2.5px"/><path d="M228.41,470.29c-10.13-20.39-29.35-34.15-51.4-34.15s-41.26,13.76-51.41,34.13" style="fill:none;stroke:#000;stroke-width:2.5px"/><path d="M217.05,473.26c-8.58-14.77-23.31-24.53-40-24.53s-31.14,9.55-39.75,24.06" style="fill:none;stroke:#000;stroke-width:2.5px"/><path d="M206.8,478.54c-6.72-10.44-17.56-17.21-29.79-17.21s-23.07,6.77-29.77,17.2" style="fill:none;stroke:#000;stroke-width:2.5px"/><path d="M346.41,470.29c-10.12-20.39-29.35-34.15-51.39-34.15s-41.26,13.76-51.42,34.13" style="fill:none;stroke:#000;stroke-width:2.5px"/><path d="M335.05,473.26c-8.57-14.77-23.3-24.53-40-24.53s-31.13,9.55-39.75,24.06" style="fill:none;stroke:#000;stroke-width:2.5px"/><path d="M324.8,478.54c-6.71-10.44-17.55-17.21-29.78-17.21s-23.06,6.77-29.78,17.2" style="fill:none;stroke:#000;stroke-width:2.5px"/><path d="M464.43,470.29c-10.13-20.39-29.36-34.15-51.4-34.15s-41.26,13.76-51.43,34.13" style="fill:none;stroke:#000;stroke-width:2.5px"/><path d="M453.07,473.26c-8.58-14.77-23.31-24.53-40-24.53s-31.14,9.55-39.75,24.06" style="fill:none;stroke:#000;stroke-width:2.5px"/><path d="M442.81,478.54c-6.71-10.44-17.54-17.21-29.78-17.21s-23.07,6.77-29.78,17.2" style="fill:none;stroke:#000;stroke-width:2.5px"/></g><rect x="-20.75" y="-21.47" width="512" height="512" style="fill:none"/></g></svg>