<svg id="Layer_2" data-name="Layer 2" xmlns="http://www.w3.org/2000/svg" xmlns:xlink="http://www.w3.org/1999/xlink" viewBox="0 0 813.07 665.07"><defs><style>.cls-1,.cls-3{fill:none;}.cls-2{clip-path:url(#clip-path);}.cls-3{stroke:#000;stroke-width:2.5px;}</style><clipPath id="clip-path" transform="translate(-72.23 70.13)"><rect class="cls-1" x="183.75" y="65.42" width="470.76" height="470.05"/></clipPath></defs><title>seamless_fish_scale_pattern_vector</title><g class="cls-2"><path class="cls-3" d="M235.14-34.74C225-55.12,205.79-68.88,183.74-68.88s-41.25,13.75-51.38,34.13" transform="translate(-72.23 70.13)"/><path class="cls-3" d="M223.78-31.76c-8.58-14.78-23.31-24.53-40-24.53-16.54,0-31.13,9.54-39.75,24" transform="translate(-72.23 70.13)"/><path class="cls-3" d="M213.52-26.49C206.82-36.92,196-43.7,183.74-43.7S160.68-36.93,154-26.5" transform="translate(-72.23 70.13)"/><path class="cls-3" d="M204.47-19.25c-4.7-7.2-12.24-11.86-20.73-11.86s-16,4.66-20.72,11.86" transform="translate(-72.23 70.13)"/><path class="cls-3" d="M196.6-10c-2.53-5.1-7.34-8.55-12.86-8.55S173.42-15.08,170.89-10" transform="translate(-72.23 70.13)"/><path class="cls-3" d="M353.15-34.74C343-55.12,323.8-68.88,301.75-68.88S260.5-55.13,250.36-34.75" transform="translate(-72.23 70.13)"/><path class="cls-3" d="M341.79-31.76c-8.58-14.78-23.31-24.53-40-24.53-16.54,0-31.14,9.54-39.75,24" transform="translate(-72.23 70.13)"/><path class="cls-3" d="M331.54-26.49C324.83-36.92,314-43.7,301.75-43.7S278.69-36.93,272-26.5" transform="translate(-72.23 70.13)"/><path class="cls-3" d="M322.48-19.25c-4.7-7.2-12.24-11.86-20.73-11.86s-16,4.66-20.72,11.86" transform="translate(-72.23 70.13)"/><path class="cls-3" d="M314.61-10c-2.53-5.1-7.34-8.55-12.86-8.55S291.43-15.08,288.9-10" transform="translate(-72.23 70.13)"/><path class="cls-3" d="M471.16-34.74C461-55.12,441.81-68.88,419.76-68.88S378.5-55.13,368.37-34.75" transform="translate(-72.23 70.13)"/><path class="cls-3" d="M459.8-31.76c-8.58-14.78-23.31-24.53-40-24.53-16.55,0-31.14,9.54-39.75,24" transform="translate(-72.23 70.13)"/><path class="cls-3" d="M449.54-26.49C442.84-36.92,432-43.7,419.76-43.7S396.69-36.93,390-26.5" transform="translate(-72.23 70.13)"/><path class="cls-3" d="M440.49-19.25c-4.71-7.2-12.24-11.86-20.73-11.86s-16,4.66-20.72,11.86" transform="translate(-72.23 70.13)"/><path class="cls-3" d="M432.62-10c-2.53-5.1-7.34-8.55-12.86-8.55S409.44-15.08,406.91-10" transform="translate(-72.23 70.13)"/><path class="cls-3" d="M589.17-34.74C579-55.12,559.82-68.88,537.77-68.88s-41.26,13.75-51.39,34.13" transform="translate(-72.23 70.13)"/><path class="cls-3" d="M577.81-31.76c-8.58-14.78-23.31-24.53-40-24.53-16.55,0-31.14,9.54-39.75,24" transform="translate(-72.23 70.13)"/><path class="cls-3" d="M567.55-26.49C560.84-36.92,550-43.7,537.77-43.7S514.71-36.93,508-26.5" transform="translate(-72.23 70.13)"/><path class="cls-3" d="M558.5-19.25c-4.71-7.2-12.24-11.86-20.73-11.86s-16,4.66-20.73,11.86" transform="translate(-72.23 70.13)"/><path class="cls-3" d="M550.63-10c-2.53-5.1-7.34-8.55-12.86-8.55S527.45-15.08,524.92-10" transform="translate(-72.23 70.13)"/><path class="cls-3" d="M707.18-34.74c-10.13-20.38-29.36-34.14-51.4-34.14s-41.26,13.75-51.39,34.13" transform="translate(-72.23 70.13)"/><path class="cls-3" d="M695.81-31.76c-8.58-14.78-23.3-24.53-40-24.53-16.55,0-31.14,9.54-39.75,24" transform="translate(-72.23 70.13)"/><path class="cls-3" d="M685.56-26.49C678.85-36.92,668-43.7,655.78-43.7S632.71-36.93,626-26.5" transform="translate(-72.23 70.13)"/><path class="cls-3" d="M676.51-19.25c-4.71-7.2-12.24-11.86-20.73-11.86s-16,4.66-20.73,11.86" transform="translate(-72.23 70.13)"/><path class="cls-3" d="M668.64-10c-2.53-5.1-7.35-8.55-12.86-8.55S645.46-15.08,642.93-10" transform="translate(-72.23 70.13)"/><path class="cls-3" d="M825.18-34.74c-10.13-20.38-29.35-34.14-51.4-34.14S732.53-55.13,722.4-34.75" transform="translate(-72.23 70.13)"/><path class="cls-3" d="M813.82-31.76c-8.58-14.78-23.31-24.53-40-24.53-16.54,0-31.13,9.54-39.74,24" transform="translate(-72.23 70.13)"/><path class="cls-3" d="M803.57-26.49C796.86-36.92,786-43.7,773.78-43.7S750.72-36.93,744-26.5" transform="translate(-72.23 70.13)"/><path class="cls-3" d="M794.51-19.25c-4.7-7.2-12.23-11.86-20.73-11.86s-16,4.66-20.72,11.86" transform="translate(-72.23 70.13)"/><path class="cls-3" d="M786.64-10c-2.52-5.1-7.34-8.55-12.86-8.55S763.47-15.08,760.93-10" transform="translate(-72.23 70.13)"/><path class="cls-3" d="M235.14,32.41C225,12,205.79-1.73,183.74-1.73S142.49,12,132.36,32.4" transform="translate(-72.23 70.13)"/><path class="cls-3" d="M223.78,35.39c-8.58-14.78-23.31-24.53-40-24.53-16.54,0-31.13,9.54-39.75,24" transform="translate(-72.23 70.13)"/><path class="cls-3" d="M213.52,40.66c-6.7-10.43-17.54-17.21-29.78-17.21S160.68,30.22,154,40.65" transform="translate(-72.23 70.13)"/><path class="cls-3" d="M204.47,47.9C199.77,40.7,192.23,36,183.74,36S167.72,40.7,163,47.9" transform="translate(-72.23 70.13)"/><path class="cls-3" d="M196.6,57.18c-2.53-5.1-7.34-8.55-12.86-8.55s-10.32,3.44-12.85,8.54" transform="translate(-72.23 70.13)"/><path class="cls-3" d="M353.15,32.41C343,12,323.8-1.73,301.75-1.73S260.5,12,250.36,32.4" transform="translate(-72.23 70.13)"/><path class="cls-3" d="M341.79,35.39c-8.58-14.78-23.31-24.53-40-24.53-16.54,0-31.14,9.54-39.75,24" transform="translate(-72.23 70.13)"/><path class="cls-3" d="M331.54,40.66C324.83,30.23,314,23.45,301.75,23.45S278.69,30.22,272,40.65" transform="translate(-72.23 70.13)"/><path class="cls-3" d="M322.48,47.9C317.78,40.7,310.24,36,301.75,36S285.73,40.7,281,47.9" transform="translate(-72.23 70.13)"/><path class="cls-3" d="M314.61,57.18c-2.53-5.1-7.34-8.55-12.86-8.55s-10.32,3.44-12.85,8.54" transform="translate(-72.23 70.13)"/><path class="cls-3" d="M471.16,32.41C461,12,441.81-1.73,419.76-1.73S378.5,12,368.37,32.4" transform="translate(-72.23 70.13)"/><path class="cls-3" d="M459.8,35.39c-8.58-14.78-23.31-24.53-40-24.53-16.55,0-31.14,9.54-39.75,24" transform="translate(-72.23 70.13)"/><path class="cls-3" d="M449.54,40.66c-6.7-10.43-17.55-17.21-29.78-17.21S396.69,30.22,390,40.65" transform="translate(-72.23 70.13)"/><path class="cls-3" d="M440.49,47.9C435.78,40.7,428.25,36,419.76,36S403.74,40.7,399,47.9" transform="translate(-72.23 70.13)"/><path class="cls-3" d="M432.62,57.18c-2.53-5.1-7.34-8.55-12.86-8.55s-10.32,3.44-12.85,8.54" transform="translate(-72.23 70.13)"/><path class="cls-3" d="M589.17,32.41C579,12,559.82-1.73,537.77-1.73S496.51,12,486.38,32.4" transform="translate(-72.23 70.13)"/><path class="cls-3" d="M577.81,35.39c-8.58-14.78-23.31-24.53-40-24.53-16.55,0-31.14,9.54-39.75,24" transform="translate(-72.23 70.13)"/><path class="cls-3" d="M567.55,40.66C560.84,30.23,550,23.45,537.77,23.45S514.71,30.22,508,40.65" transform="translate(-72.23 70.13)"/><path class="cls-3" d="M558.5,47.9C553.79,40.7,546.26,36,537.77,36S521.75,40.7,517,47.9" transform="translate(-72.23 70.13)"/><path class="cls-3" d="M550.63,57.18c-2.53-5.1-7.34-8.55-12.86-8.55s-10.32,3.44-12.85,8.54" transform="translate(-72.23 70.13)"/><path class="cls-3" d="M707.18,32.41C697.05,12,677.82-1.73,655.78-1.73S614.52,12,604.39,32.4" transform="translate(-72.23 70.13)"/><path class="cls-3" d="M695.81,35.39c-8.58-14.78-23.3-24.53-40-24.53-16.55,0-31.14,9.54-39.75,24" transform="translate(-72.23 70.13)"/><path class="cls-3" d="M685.56,40.66C678.85,30.23,668,23.45,655.78,23.45S632.71,30.22,626,40.65" transform="translate(-72.23 70.13)"/><path class="cls-3" d="M676.51,47.9C671.8,40.7,664.27,36,655.78,36s-16,4.66-20.73,11.86" transform="translate(-72.23 70.13)"/><path class="cls-3" d="M668.64,57.18c-2.53-5.1-7.35-8.55-12.86-8.55s-10.32,3.44-12.85,8.54" transform="translate(-72.23 70.13)"/><path class="cls-3" d="M825.18,32.41C815.05,12,795.83-1.73,773.78-1.73S732.53,12,722.4,32.4" transform="translate(-72.23 70.13)"/><path class="cls-3" d="M813.82,35.39c-8.58-14.78-23.31-24.53-40-24.53-16.54,0-31.13,9.54-39.74,24" transform="translate(-72.23 70.13)"/><path class="cls-3" d="M803.57,40.66C796.86,30.23,786,23.45,773.78,23.45S750.72,30.22,744,40.65" transform="translate(-72.23 70.13)"/><path class="cls-3" d="M794.51,47.9C789.81,40.7,782.28,36,773.78,36s-16,4.66-20.72,11.86" transform="translate(-72.23 70.13)"/><path class="cls-3" d="M786.64,57.18c-2.52-5.1-7.34-8.55-12.86-8.55s-10.31,3.44-12.85,8.54" transform="translate(-72.23 70.13)"/><path class="cls-3" d="M235.14,99.56C225,79.18,205.79,65.42,183.74,65.42s-41.25,13.75-51.38,34.13" transform="translate(-72.23 70.13)"/><path class="cls-3" d="M223.78,102.54C215.2,87.76,200.47,78,183.74,78c-16.54,0-31.13,9.54-39.75,24" transform="translate(-72.23 70.13)"/><path class="cls-3" d="M213.52,107.81C206.82,97.38,196,90.6,183.74,90.6S160.68,97.37,154,107.8" transform="translate(-72.23 70.13)"/><path class="cls-3" d="M204.47,115.05c-4.7-7.19-12.24-11.86-20.73-11.86s-16,4.67-20.72,11.87" transform="translate(-72.23 70.13)"/><path class="cls-3" d="M196.6,124.33c-2.53-5.1-7.34-8.55-12.86-8.55s-10.32,3.44-12.85,8.54" transform="translate(-72.23 70.13)"/><path class="cls-3" d="M353.15,99.56C343,79.18,323.8,65.42,301.75,65.42S260.5,79.17,250.36,99.55" transform="translate(-72.23 70.13)"/><path class="cls-3" d="M341.79,102.54C333.21,87.76,318.48,78,301.75,78c-16.54,0-31.14,9.54-39.75,24" transform="translate(-72.23 70.13)"/><path class="cls-3" d="M331.54,107.81C324.83,97.38,314,90.6,301.75,90.6S278.69,97.37,272,107.8" transform="translate(-72.23 70.13)"/><path class="cls-3" d="M322.48,115.05c-4.7-7.19-12.24-11.86-20.73-11.86s-16,4.67-20.72,11.87" transform="translate(-72.23 70.13)"/><path class="cls-3" d="M314.61,124.33c-2.53-5.1-7.34-8.55-12.86-8.55s-10.32,3.44-12.85,8.54" transform="translate(-72.23 70.13)"/><path class="cls-3" d="M471.16,99.56C461,79.18,441.81,65.42,419.76,65.42S378.5,79.17,368.37,99.55" transform="translate(-72.23 70.13)"/><path class="cls-3" d="M459.8,102.54C451.22,87.76,436.49,78,419.76,78c-16.55,0-31.14,9.54-39.75,24" transform="translate(-72.23 70.13)"/><path class="cls-3" d="M449.54,107.81C442.84,97.38,432,90.6,419.76,90.6S396.69,97.37,390,107.8" transform="translate(-72.23 70.13)"/><path class="cls-3" d="M440.49,115.05c-4.71-7.19-12.24-11.86-20.73-11.86s-16,4.67-20.72,11.87" transform="translate(-72.23 70.13)"/><path class="cls-3" d="M432.62,124.33c-2.53-5.1-7.34-8.55-12.86-8.55s-10.32,3.44-12.85,8.54" transform="translate(-72.23 70.13)"/><path class="cls-3" d="M589.17,99.56C579,79.18,559.82,65.42,537.77,65.42s-41.26,13.75-51.39,34.13" transform="translate(-72.23 70.13)"/><path class="cls-3" d="M577.81,102.54C569.23,87.76,554.5,78,537.77,78c-16.55,0-31.14,9.54-39.75,24" transform="translate(-72.23 70.13)"/><path class="cls-3" d="M567.55,107.81C560.84,97.38,550,90.6,537.77,90.6S514.71,97.37,508,107.8" transform="translate(-72.23 70.13)"/><path class="cls-3" d="M558.5,115.05c-4.71-7.19-12.24-11.86-20.73-11.86s-16,4.67-20.73,11.87" transform="translate(-72.23 70.13)"/><path class="cls-3" d="M550.63,124.33c-2.53-5.1-7.34-8.55-12.86-8.55s-10.32,3.44-12.85,8.54" transform="translate(-72.23 70.13)"/><path class="cls-3" d="M707.18,99.56c-10.13-20.38-29.36-34.14-51.4-34.14s-41.26,13.75-51.39,34.13" transform="translate(-72.23 70.13)"/><path class="cls-3" d="M695.81,102.54c-8.58-14.78-23.3-24.53-40-24.53-16.55,0-31.14,9.54-39.75,24" transform="translate(-72.23 70.13)"/><path class="cls-3" d="M685.56,107.81C678.85,97.38,668,90.6,655.78,90.6S632.71,97.37,626,107.8" transform="translate(-72.23 70.13)"/><path class="cls-3" d="M676.51,115.05c-4.71-7.19-12.24-11.86-20.73-11.86s-16,4.67-20.73,11.87" transform="translate(-72.23 70.13)"/><path class="cls-3" d="M668.64,124.33c-2.53-5.1-7.35-8.55-12.86-8.55s-10.32,3.44-12.85,8.54" transform="translate(-72.23 70.13)"/><path class="cls-3" d="M825.18,99.56c-10.13-20.38-29.35-34.14-51.4-34.14S732.53,79.17,722.4,99.55" transform="translate(-72.23 70.13)"/><path class="cls-3" d="M813.82,102.54C805.24,87.76,790.51,78,773.78,78c-16.54,0-31.13,9.54-39.74,24" transform="translate(-72.23 70.13)"/><path class="cls-3" d="M803.57,107.81C796.86,97.38,786,90.6,773.78,90.6S750.72,97.37,744,107.8" transform="translate(-72.23 70.13)"/><path class="cls-3" d="M794.51,115.05c-4.7-7.19-12.23-11.86-20.73-11.86s-16,4.67-20.72,11.87" transform="translate(-72.23 70.13)"/><path class="cls-3" d="M786.64,124.33c-2.52-5.1-7.34-8.55-12.86-8.55s-10.31,3.44-12.85,8.54" transform="translate(-72.23 70.13)"/><path class="cls-3" d="M235.14,166.71c-10.13-20.38-29.35-34.14-51.4-34.14s-41.25,13.75-51.38,34.13" transform="translate(-72.23 70.13)"/><path class="cls-3" d="M223.78,169.7c-8.58-14.79-23.31-24.54-40-24.54-16.54,0-31.13,9.54-39.75,24.05" transform="translate(-72.23 70.13)"/><path class="cls-3" d="M213.52,175c-6.7-10.43-17.54-17.21-29.78-17.21S160.68,164.53,154,175" transform="translate(-72.23 70.13)"/><path class="cls-3" d="M204.47,182.2c-4.7-7.2-12.24-11.86-20.73-11.86S167.72,175,163,182.2" transform="translate(-72.23 70.13)"/><path class="cls-3" d="M196.6,191.48c-2.53-5.1-7.34-8.55-12.86-8.55s-10.32,3.44-12.85,8.54" transform="translate(-72.23 70.13)"/><path class="cls-3" d="M353.15,166.71c-10.13-20.38-29.35-34.14-51.4-34.14s-41.25,13.75-51.39,34.13" transform="translate(-72.23 70.13)"/><path class="cls-3" d="M341.79,169.7c-8.58-14.79-23.31-24.54-40-24.54-16.54,0-31.14,9.54-39.75,24.05" transform="translate(-72.23 70.13)"/><path class="cls-3" d="M331.54,175c-6.71-10.43-17.55-17.21-29.79-17.21S278.69,164.53,272,175" transform="translate(-72.23 70.13)"/><path class="cls-3" d="M322.48,182.2c-4.7-7.2-12.24-11.86-20.73-11.86S285.73,175,281,182.2" transform="translate(-72.23 70.13)"/><path class="cls-3" d="M314.61,191.48c-2.53-5.1-7.34-8.55-12.86-8.55s-10.32,3.44-12.85,8.54" transform="translate(-72.23 70.13)"/><path class="cls-3" d="M471.16,166.71c-10.13-20.38-29.35-34.14-51.4-34.14s-41.26,13.75-51.39,34.13" transform="translate(-72.23 70.13)"/><path class="cls-3" d="M459.8,169.7c-8.58-14.79-23.31-24.54-40-24.54-16.55,0-31.14,9.54-39.75,24.05" transform="translate(-72.23 70.13)"/><path class="cls-3" d="M449.54,175c-6.7-10.43-17.55-17.21-29.78-17.21S396.69,164.53,390,175" transform="translate(-72.23 70.13)"/><path class="cls-3" d="M440.49,182.2c-4.71-7.2-12.24-11.86-20.73-11.86S403.74,175,399,182.2" transform="translate(-72.23 70.13)"/><path class="cls-3" d="M432.62,191.48c-2.53-5.1-7.34-8.55-12.86-8.55s-10.32,3.44-12.85,8.54" transform="translate(-72.23 70.13)"/><path class="cls-3" d="M589.17,166.71c-10.13-20.38-29.35-34.14-51.4-34.14s-41.26,13.75-51.39,34.13" transform="translate(-72.23 70.13)"/><path class="cls-3" d="M577.81,169.7c-8.58-14.79-23.31-24.54-40-24.54-16.55,0-31.14,9.54-39.75,24.05" transform="translate(-72.23 70.13)"/><path class="cls-3" d="M567.55,175c-6.71-10.43-17.55-17.21-29.78-17.21S514.71,164.53,508,175" transform="translate(-72.23 70.13)"/><path class="cls-3" d="M558.5,182.2c-4.71-7.2-12.24-11.86-20.73-11.86S521.75,175,517,182.2" transform="translate(-72.23 70.13)"/><path class="cls-3" d="M550.63,191.48c-2.53-5.1-7.34-8.55-12.86-8.55s-10.32,3.44-12.85,8.54" transform="translate(-72.23 70.13)"/><path class="cls-3" d="M707.18,166.71c-10.13-20.38-29.36-34.14-51.4-34.14s-41.26,13.75-51.39,34.13" transform="translate(-72.23 70.13)"/><path class="cls-3" d="M695.81,169.7c-8.58-14.79-23.3-24.54-40-24.54-16.55,0-31.14,9.54-39.75,24.05" transform="translate(-72.23 70.13)"/><path class="cls-3" d="M685.56,175c-6.71-10.43-17.55-17.21-29.78-17.21S632.71,164.53,626,175" transform="translate(-72.23 70.13)"/><path class="cls-3" d="M676.51,182.2c-4.71-7.2-12.24-11.86-20.73-11.86s-16,4.66-20.73,11.86" transform="translate(-72.23 70.13)"/><path class="cls-3" d="M668.64,191.48c-2.53-5.1-7.35-8.55-12.86-8.55s-10.32,3.44-12.85,8.54" transform="translate(-72.23 70.13)"/><path class="cls-3" d="M825.18,166.71c-10.13-20.38-29.35-34.14-51.4-34.14s-41.25,13.75-51.38,34.13" transform="translate(-72.23 70.13)"/><path class="cls-3" d="M813.82,169.7c-8.58-14.79-23.31-24.54-40-24.54-16.54,0-31.13,9.54-39.74,24.05" transform="translate(-72.23 70.13)"/><path class="cls-3" d="M803.57,175c-6.71-10.43-17.55-17.21-29.79-17.21S750.72,164.53,744,175" transform="translate(-72.23 70.13)"/><path class="cls-3" d="M794.51,182.2c-4.7-7.2-12.23-11.86-20.73-11.86s-16,4.66-20.72,11.86" transform="translate(-72.23 70.13)"/><path class="cls-3" d="M786.64,191.48c-2.52-5.1-7.34-8.55-12.86-8.55s-10.31,3.44-12.85,8.54" transform="translate(-72.23 70.13)"/><path class="cls-3" d="M235.14,233.86c-10.13-20.38-29.35-34.14-51.4-34.14s-41.25,13.75-51.38,34.13" transform="translate(-72.23 70.13)"/><path class="cls-3" d="M223.78,236.84c-8.58-14.78-23.31-24.53-40-24.53-16.54,0-31.13,9.54-39.75,24.05" transform="translate(-72.23 70.13)"/><path class="cls-3" d="M213.52,242.11c-6.7-10.43-17.54-17.21-29.78-17.21s-23.06,6.78-29.77,17.21" transform="translate(-72.23 70.13)"/><path class="cls-3" d="M204.47,249.35c-4.7-7.19-12.24-11.86-20.73-11.86s-16,4.67-20.72,11.87" transform="translate(-72.23 70.13)"/><path class="cls-3" d="M196.6,258.63c-2.53-5.1-7.34-8.55-12.86-8.55s-10.32,3.44-12.85,8.54" transform="translate(-72.23 70.13)"/><path class="cls-3" d="M353.15,233.86c-10.13-20.38-29.35-34.14-51.4-34.14s-41.25,13.75-51.39,34.13" transform="translate(-72.23 70.13)"/><path class="cls-3" d="M341.79,236.84c-8.58-14.78-23.31-24.53-40-24.53-16.54,0-31.14,9.54-39.75,24.05" transform="translate(-72.23 70.13)"/><path class="cls-3" d="M331.54,242.11c-6.71-10.43-17.55-17.21-29.79-17.21s-23.06,6.78-29.77,17.21" transform="translate(-72.23 70.13)"/><path class="cls-3" d="M322.48,249.35c-4.7-7.19-12.24-11.86-20.73-11.86s-16,4.67-20.72,11.87" transform="translate(-72.23 70.13)"/><path class="cls-3" d="M314.61,258.63c-2.53-5.1-7.34-8.55-12.86-8.55s-10.32,3.44-12.85,8.54" transform="translate(-72.23 70.13)"/><path class="cls-3" d="M471.16,233.86c-10.13-20.38-29.35-34.14-51.4-34.14s-41.26,13.75-51.39,34.13" transform="translate(-72.23 70.13)"/><path class="cls-3" d="M459.8,236.84c-8.58-14.78-23.31-24.53-40-24.53-16.55,0-31.14,9.54-39.75,24.05" transform="translate(-72.23 70.13)"/><path class="cls-3" d="M449.54,242.11c-6.7-10.43-17.55-17.21-29.78-17.21s-23.07,6.78-29.78,17.21" transform="translate(-72.23 70.13)"/><path class="cls-3" d="M440.49,249.35c-4.71-7.19-12.24-11.86-20.73-11.86s-16,4.67-20.72,11.87" transform="translate(-72.23 70.13)"/><path class="cls-3" d="M432.62,258.63c-2.53-5.1-7.34-8.55-12.86-8.55s-10.32,3.44-12.85,8.54" transform="translate(-72.23 70.13)"/><path class="cls-3" d="M589.17,233.86c-10.13-20.38-29.35-34.14-51.4-34.14s-41.26,13.75-51.39,34.13" transform="translate(-72.23 70.13)"/><path class="cls-3" d="M577.81,236.84c-8.58-14.78-23.31-24.53-40-24.53-16.55,0-31.14,9.54-39.75,24.05" transform="translate(-72.23 70.13)"/><path class="cls-3" d="M567.55,242.11c-6.71-10.43-17.55-17.21-29.78-17.21s-23.06,6.78-29.78,17.21" transform="translate(-72.23 70.13)"/><path class="cls-3" d="M558.5,249.35c-4.71-7.19-12.24-11.86-20.73-11.86s-16,4.67-20.73,11.87" transform="translate(-72.23 70.13)"/><path class="cls-3" d="M550.63,258.63c-2.53-5.1-7.34-8.55-12.86-8.55s-10.32,3.44-12.85,8.54" transform="translate(-72.23 70.13)"/><path class="cls-3" d="M707.18,233.86c-10.13-20.38-29.36-34.14-51.4-34.14s-41.26,13.75-51.39,34.13" transform="translate(-72.23 70.13)"/><path class="cls-3" d="M695.81,236.84c-8.58-14.78-23.3-24.53-40-24.53-16.55,0-31.14,9.54-39.75,24.05" transform="translate(-72.23 70.13)"/><path class="cls-3" d="M685.56,242.11c-6.71-10.43-17.55-17.21-29.78-17.21s-23.07,6.78-29.78,17.21" transform="translate(-72.23 70.13)"/><path class="cls-3" d="M676.51,249.35c-4.71-7.19-12.24-11.86-20.73-11.86s-16,4.67-20.73,11.87" transform="translate(-72.23 70.13)"/><path class="cls-3" d="M668.64,258.63c-2.53-5.1-7.35-8.55-12.86-8.55s-10.32,3.44-12.85,8.54" transform="translate(-72.23 70.13)"/><path class="cls-3" d="M825.18,233.86c-10.13-20.38-29.35-34.14-51.4-34.14s-41.25,13.75-51.38,34.13" transform="translate(-72.23 70.13)"/><path class="cls-3" d="M813.82,236.84c-8.58-14.78-23.31-24.53-40-24.53-16.54,0-31.13,9.54-39.74,24.05" transform="translate(-72.23 70.13)"/><path class="cls-3" d="M803.57,242.11c-6.71-10.43-17.55-17.21-29.79-17.21s-23.06,6.78-29.77,17.21" transform="translate(-72.23 70.13)"/><path class="cls-3" d="M794.51,249.35c-4.7-7.19-12.23-11.86-20.73-11.86s-16,4.67-20.72,11.87" transform="translate(-72.23 70.13)"/><path class="cls-3" d="M786.64,258.63c-2.52-5.1-7.34-8.55-12.86-8.55s-10.31,3.44-12.85,8.54" transform="translate(-72.23 70.13)"/><path class="cls-3" d="M235.14,301c-10.13-20.38-29.35-34.14-51.4-34.14S142.49,280.62,132.36,301" transform="translate(-72.23 70.13)"/><path class="cls-3" d="M223.78,304c-8.58-14.79-23.31-24.54-40-24.54-16.54,0-31.13,9.54-39.75,24.05" transform="translate(-72.23 70.13)"/><path class="cls-3" d="M213.52,309.26c-6.7-10.43-17.54-17.21-29.78-17.21s-23.06,6.77-29.77,17.2" transform="translate(-72.23 70.13)"/><path class="cls-3" d="M204.47,316.5c-4.7-7.2-12.24-11.86-20.73-11.86s-16,4.66-20.72,11.87" transform="translate(-72.23 70.13)"/><path class="cls-3" d="M196.6,325.79c-2.53-5.11-7.34-8.56-12.86-8.56s-10.32,3.44-12.85,8.54" transform="translate(-72.23 70.13)"/><path class="cls-3" d="M353.15,301c-10.13-20.38-29.35-34.14-51.4-34.14S260.5,280.62,250.36,301" transform="translate(-72.23 70.13)"/><path class="cls-3" d="M341.79,304c-8.58-14.79-23.31-24.54-40-24.54-16.54,0-31.14,9.54-39.75,24.05" transform="translate(-72.23 70.13)"/><path class="cls-3" d="M331.54,309.26c-6.71-10.43-17.55-17.21-29.79-17.21s-23.06,6.77-29.77,17.2" transform="translate(-72.23 70.13)"/><path class="cls-3" d="M322.48,316.5c-4.7-7.2-12.24-11.86-20.73-11.86s-16,4.66-20.72,11.87" transform="translate(-72.23 70.13)"/><path class="cls-3" d="M314.61,325.79c-2.53-5.11-7.34-8.56-12.86-8.56s-10.32,3.44-12.85,8.54" transform="translate(-72.23 70.13)"/><path class="cls-3" d="M471.16,301c-10.13-20.38-29.35-34.14-51.4-34.14S378.5,280.62,368.37,301" transform="translate(-72.23 70.13)"/><path class="cls-3" d="M459.8,304c-8.58-14.79-23.31-24.54-40-24.54-16.55,0-31.14,9.54-39.75,24.05" transform="translate(-72.23 70.13)"/><path class="cls-3" d="M449.54,309.26c-6.7-10.43-17.55-17.21-29.78-17.21s-23.07,6.77-29.78,17.2" transform="translate(-72.23 70.13)"/><path class="cls-3" d="M440.49,316.5c-4.71-7.2-12.24-11.86-20.73-11.86s-16,4.66-20.72,11.87" transform="translate(-72.23 70.13)"/><path class="cls-3" d="M432.62,325.79c-2.53-5.11-7.34-8.56-12.86-8.56s-10.32,3.44-12.85,8.54" transform="translate(-72.23 70.13)"/><path class="cls-3" d="M589.17,301c-10.13-20.38-29.35-34.14-51.4-34.14S496.51,280.62,486.38,301" transform="translate(-72.23 70.13)"/><path class="cls-3" d="M577.81,304c-8.58-14.79-23.31-24.54-40-24.54-16.55,0-31.14,9.54-39.75,24.05" transform="translate(-72.23 70.13)"/><path class="cls-3" d="M567.55,309.26c-6.71-10.43-17.55-17.21-29.78-17.21s-23.06,6.77-29.78,17.2" transform="translate(-72.23 70.13)"/><path class="cls-3" d="M558.5,316.5c-4.71-7.2-12.24-11.86-20.73-11.86s-16,4.66-20.73,11.87" transform="translate(-72.23 70.13)"/><path class="cls-3" d="M550.63,325.79c-2.53-5.11-7.34-8.56-12.86-8.56s-10.32,3.44-12.85,8.54" transform="translate(-72.23 70.13)"/><path class="cls-3" d="M707.18,301c-10.13-20.38-29.36-34.14-51.4-34.14S614.52,280.62,604.39,301" transform="translate(-72.23 70.13)"/><path class="cls-3" d="M695.81,304c-8.58-14.79-23.3-24.54-40-24.54-16.55,0-31.14,9.54-39.75,24.05" transform="translate(-72.23 70.13)"/><path class="cls-3" d="M685.56,309.26c-6.71-10.43-17.55-17.21-29.78-17.21s-23.07,6.77-29.78,17.2" transform="translate(-72.23 70.13)"/><path class="cls-3" d="M676.51,316.5c-4.71-7.2-12.24-11.86-20.73-11.86s-16,4.66-20.73,11.87" transform="translate(-72.23 70.13)"/><path class="cls-3" d="M668.64,325.79c-2.53-5.11-7.35-8.56-12.86-8.56s-10.32,3.44-12.85,8.54" transform="translate(-72.23 70.13)"/><path class="cls-3" d="M825.18,301c-10.13-20.38-29.35-34.14-51.4-34.14S732.53,280.62,722.4,301" transform="translate(-72.23 70.13)"/><path class="cls-3" d="M813.82,304c-8.58-14.79-23.31-24.54-40-24.54-16.54,0-31.13,9.54-39.74,24.05" transform="translate(-72.23 70.13)"/><path class="cls-3" d="M803.57,309.26c-6.71-10.43-17.55-17.21-29.79-17.21s-23.06,6.77-29.77,17.2" transform="translate(-72.23 70.13)"/><path class="cls-3" d="M794.51,316.5c-4.7-7.2-12.23-11.86-20.73-11.86s-16,4.66-20.72,11.87" transform="translate(-72.23 70.13)"/><path class="cls-3" d="M786.64,325.79c-2.52-5.11-7.34-8.56-12.86-8.56s-10.31,3.44-12.85,8.54" transform="translate(-72.23 70.13)"/><path class="cls-3" d="M235.14,368.16C225,347.78,205.79,334,183.74,334s-41.25,13.75-51.38,34.13" transform="translate(-72.23 70.13)"/><path class="cls-3" d="M223.78,371.15c-8.58-14.79-23.31-24.54-40-24.54-16.54,0-31.13,9.54-39.75,24.05" transform="translate(-72.23 70.13)"/><path class="cls-3" d="M213.52,376.41C206.82,366,196,359.2,183.74,359.2S160.68,366,154,376.41" transform="translate(-72.23 70.13)"/><path class="cls-3" d="M204.47,383.66c-4.7-7.2-12.24-11.87-20.73-11.87s-16,4.67-20.72,11.87" transform="translate(-72.23 70.13)"/><path class="cls-3" d="M196.6,392.94c-2.53-5.11-7.34-8.56-12.86-8.56s-10.32,3.45-12.85,8.54" transform="translate(-72.23 70.13)"/><path class="cls-3" d="M353.15,368.16C343,347.78,323.8,334,301.75,334s-41.25,13.75-51.39,34.13" transform="translate(-72.23 70.13)"/><path class="cls-3" d="M341.79,371.15c-8.58-14.79-23.31-24.54-40-24.54-16.54,0-31.14,9.54-39.75,24.05" transform="translate(-72.23 70.13)"/><path class="cls-3" d="M331.54,376.41C324.83,366,314,359.2,301.75,359.2S278.69,366,272,376.41" transform="translate(-72.23 70.13)"/><path class="cls-3" d="M322.48,383.66c-4.7-7.2-12.24-11.87-20.73-11.87s-16,4.67-20.72,11.87" transform="translate(-72.23 70.13)"/><path class="cls-3" d="M314.61,392.94c-2.53-5.11-7.34-8.56-12.86-8.56s-10.32,3.45-12.85,8.54" transform="translate(-72.23 70.13)"/><path class="cls-3" d="M471.16,368.16C461,347.78,441.81,334,419.76,334s-41.26,13.75-51.39,34.13" transform="translate(-72.23 70.13)"/><path class="cls-3" d="M459.8,371.15c-8.58-14.79-23.31-24.54-40-24.54-16.55,0-31.14,9.54-39.75,24.05" transform="translate(-72.23 70.13)"/><path class="cls-3" d="M449.54,376.41C442.84,366,432,359.2,419.76,359.2S396.69,366,390,376.41" transform="translate(-72.23 70.13)"/><path class="cls-3" d="M440.49,383.66c-4.71-7.2-12.24-11.87-20.73-11.87s-16,4.67-20.72,11.87" transform="translate(-72.23 70.13)"/><path class="cls-3" d="M432.62,392.94c-2.53-5.11-7.34-8.56-12.86-8.56s-10.32,3.45-12.85,8.54" transform="translate(-72.23 70.13)"/><path class="cls-3" d="M589.17,368.16C579,347.78,559.82,334,537.77,334s-41.26,13.75-51.39,34.13" transform="translate(-72.23 70.13)"/><path class="cls-3" d="M577.81,371.15c-8.58-14.79-23.31-24.54-40-24.54-16.55,0-31.14,9.54-39.75,24.05" transform="translate(-72.23 70.13)"/><path class="cls-3" d="M567.55,376.41C560.84,366,550,359.2,537.77,359.2S514.71,366,508,376.41" transform="translate(-72.23 70.13)"/><path class="cls-3" d="M558.5,383.66c-4.71-7.2-12.24-11.87-20.73-11.87s-16,4.67-20.73,11.87" transform="translate(-72.23 70.13)"/><path class="cls-3" d="M550.63,392.94c-2.53-5.11-7.34-8.56-12.86-8.56s-10.32,3.45-12.85,8.54" transform="translate(-72.23 70.13)"/><path class="cls-3" d="M707.18,368.16C697.05,347.78,677.82,334,655.78,334s-41.26,13.75-51.39,34.13" transform="translate(-72.23 70.13)"/><path class="cls-3" d="M695.81,371.15c-8.58-14.79-23.3-24.54-40-24.54-16.55,0-31.14,9.54-39.75,24.05" transform="translate(-72.23 70.13)"/><path class="cls-3" d="M685.56,376.41C678.85,366,668,359.2,655.78,359.2S632.71,366,626,376.41" transform="translate(-72.23 70.13)"/><path class="cls-3" d="M676.51,383.66c-4.71-7.2-12.24-11.87-20.73-11.87s-16,4.67-20.73,11.87" transform="translate(-72.23 70.13)"/><path class="cls-3" d="M668.64,392.94c-2.53-5.11-7.35-8.56-12.86-8.56s-10.32,3.45-12.85,8.54" transform="translate(-72.23 70.13)"/><path class="cls-3" d="M825.18,368.16C815.05,347.78,795.83,334,773.78,334s-41.25,13.75-51.38,34.13" transform="translate(-72.23 70.13)"/><path class="cls-3" d="M813.82,371.15c-8.58-14.79-23.31-24.54-40-24.54-16.54,0-31.13,9.54-39.74,24.05" transform="translate(-72.23 70.13)"/><path class="cls-3" d="M803.57,376.41C796.86,366,786,359.2,773.78,359.2S750.72,366,744,376.41" transform="translate(-72.23 70.13)"/><path class="cls-3" d="M794.51,383.66c-4.7-7.2-12.23-11.87-20.73-11.87s-16,4.67-20.72,11.87" transform="translate(-72.23 70.13)"/><path class="cls-3" d="M786.64,392.94c-2.52-5.11-7.34-8.56-12.86-8.56s-10.31,3.45-12.85,8.54" transform="translate(-72.23 70.13)"/><path class="cls-3" d="M235.14,435.31c-10.13-20.38-29.35-34.14-51.4-34.14s-41.25,13.76-51.38,34.13" transform="translate(-72.23 70.13)"/><path class="cls-3" d="M223.78,438.29c-8.58-14.78-23.31-24.53-40-24.53-16.54,0-31.13,9.54-39.75,24.05" transform="translate(-72.23 70.13)"/><path class="cls-3" d="M213.52,443.56c-6.7-10.43-17.54-17.21-29.78-17.21s-23.06,6.78-29.77,17.2" transform="translate(-72.23 70.13)"/><path class="cls-3" d="M204.47,450.8c-4.7-7.2-12.24-11.86-20.73-11.86s-16,4.66-20.72,11.87" transform="translate(-72.23 70.13)"/><path class="cls-3" d="M196.6,460.08c-2.53-5.1-7.34-8.55-12.86-8.55s-10.32,3.44-12.85,8.54" transform="translate(-72.23 70.13)"/><path class="cls-3" d="M353.15,435.31c-10.13-20.38-29.35-34.14-51.4-34.14s-41.25,13.76-51.39,34.13" transform="translate(-72.23 70.13)"/><path class="cls-3" d="M341.79,438.29c-8.58-14.78-23.31-24.53-40-24.53-16.54,0-31.14,9.54-39.75,24.05" transform="translate(-72.23 70.13)"/><path class="cls-3" d="M331.54,443.56c-6.71-10.43-17.55-17.21-29.79-17.21s-23.06,6.78-29.77,17.2" transform="translate(-72.23 70.13)"/><path class="cls-3" d="M322.48,450.8c-4.7-7.2-12.24-11.86-20.73-11.86s-16,4.66-20.72,11.87" transform="translate(-72.23 70.13)"/><path class="cls-3" d="M314.61,460.08c-2.53-5.1-7.34-8.55-12.86-8.55s-10.32,3.44-12.85,8.54" transform="translate(-72.23 70.13)"/><path class="cls-3" d="M471.16,435.31c-10.13-20.38-29.35-34.14-51.4-34.14s-41.26,13.76-51.39,34.13" transform="translate(-72.23 70.13)"/><path class="cls-3" d="M459.8,438.29c-8.58-14.78-23.31-24.53-40-24.53-16.55,0-31.14,9.54-39.75,24.05" transform="translate(-72.23 70.13)"/><path class="cls-3" d="M449.54,443.56c-6.7-10.43-17.55-17.21-29.78-17.21s-23.07,6.78-29.78,17.2" transform="translate(-72.23 70.13)"/><path class="cls-3" d="M440.49,450.8c-4.71-7.2-12.24-11.86-20.73-11.86s-16,4.66-20.72,11.87" transform="translate(-72.23 70.13)"/><path class="cls-3" d="M432.62,460.08c-2.53-5.1-7.34-8.55-12.86-8.55s-10.32,3.44-12.85,8.54" transform="translate(-72.23 70.13)"/><path class="cls-3" d="M589.17,435.31c-10.13-20.38-29.35-34.14-51.4-34.14s-41.26,13.76-51.39,34.13" transform="translate(-72.23 70.13)"/><path class="cls-3" d="M577.81,438.29c-8.58-14.78-23.31-24.53-40-24.53-16.55,0-31.14,9.54-39.75,24.05" transform="translate(-72.23 70.13)"/><path class="cls-3" d="M567.55,443.56c-6.71-10.43-17.55-17.21-29.78-17.21s-23.06,6.78-29.78,17.2" transform="translate(-72.23 70.13)"/><path class="cls-3" d="M558.5,450.8c-4.71-7.2-12.24-11.86-20.73-11.86s-16,4.66-20.73,11.87" transform="translate(-72.23 70.13)"/><path class="cls-3" d="M550.63,460.08c-2.53-5.1-7.34-8.55-12.86-8.55s-10.32,3.44-12.85,8.54" transform="translate(-72.23 70.13)"/><path class="cls-3" d="M707.18,435.31c-10.13-20.38-29.36-34.14-51.4-34.14s-41.26,13.76-51.39,34.13" transform="translate(-72.23 70.13)"/><path class="cls-3" d="M695.81,438.29c-8.58-14.78-23.3-24.53-40-24.53-16.55,0-31.14,9.54-39.75,24.05" transform="translate(-72.23 70.13)"/><path class="cls-3" d="M685.56,443.56c-6.71-10.43-17.55-17.21-29.78-17.21s-23.07,6.78-29.78,17.2" transform="translate(-72.23 70.13)"/><path class="cls-3" d="M676.51,450.8c-4.71-7.2-12.24-11.86-20.73-11.86s-16,4.66-20.73,11.87" transform="translate(-72.23 70.13)"/><path class="cls-3" d="M668.64,460.08c-2.53-5.1-7.35-8.55-12.86-8.55s-10.32,3.44-12.85,8.54" transform="translate(-72.23 70.13)"/><path class="cls-3" d="M825.18,435.31c-10.13-20.38-29.35-34.14-51.4-34.14s-41.25,13.76-51.38,34.13" transform="translate(-72.23 70.13)"/><path class="cls-3" d="M813.82,438.29c-8.58-14.78-23.31-24.53-40-24.53-16.54,0-31.13,9.54-39.74,24.05" transform="translate(-72.23 70.13)"/><path class="cls-3" d="M803.57,443.56c-6.71-10.43-17.55-17.21-29.79-17.21s-23.06,6.78-29.77,17.2" transform="translate(-72.23 70.13)"/><path class="cls-3" d="M794.51,450.8c-4.7-7.2-12.23-11.86-20.73-11.86s-16,4.66-20.72,11.87" transform="translate(-72.23 70.13)"/><path class="cls-3" d="M786.64,460.08c-2.52-5.1-7.34-8.55-12.86-8.55s-10.31,3.44-12.85,8.54" transform="translate(-72.23 70.13)"/><path class="cls-3" d="M235.14,502.46c-10.13-20.38-29.35-34.14-51.4-34.14s-41.25,13.75-51.38,34.13" transform="translate(-72.23 70.13)"/><path class="cls-3" d="M223.78,505.44c-8.58-14.78-23.31-24.53-40-24.53-16.54,0-31.13,9.54-39.75,24" transform="translate(-72.23 70.13)"/><path class="cls-3" d="M213.52,510.72c-6.7-10.44-17.54-17.22-29.78-17.22s-23.06,6.77-29.77,17.2" transform="translate(-72.23 70.13)"/><path class="cls-3" d="M204.47,518c-4.7-7.2-12.24-11.86-20.73-11.86s-16,4.66-20.72,11.86" transform="translate(-72.23 70.13)"/><path class="cls-3" d="M196.6,527.24c-2.53-5.11-7.34-8.56-12.86-8.56s-10.32,3.45-12.85,8.55" transform="translate(-72.23 70.13)"/><path class="cls-3" d="M353.15,502.46c-10.13-20.38-29.35-34.14-51.4-34.14s-41.25,13.75-51.39,34.13" transform="translate(-72.23 70.13)"/><path class="cls-3" d="M341.79,505.44c-8.58-14.78-23.31-24.53-40-24.53-16.54,0-31.14,9.54-39.75,24" transform="translate(-72.23 70.13)"/><path class="cls-3" d="M331.54,510.72c-6.71-10.44-17.55-17.22-29.79-17.22s-23.06,6.77-29.77,17.2" transform="translate(-72.23 70.13)"/><path class="cls-3" d="M322.48,518c-4.7-7.2-12.24-11.86-20.73-11.86s-16,4.66-20.72,11.86" transform="translate(-72.23 70.13)"/><path class="cls-3" d="M314.61,527.24c-2.53-5.11-7.34-8.56-12.86-8.56s-10.32,3.45-12.85,8.55" transform="translate(-72.23 70.13)"/><path class="cls-3" d="M471.16,502.46c-10.13-20.38-29.35-34.14-51.4-34.14s-41.26,13.75-51.39,34.13" transform="translate(-72.23 70.13)"/><path class="cls-3" d="M459.8,505.44c-8.58-14.78-23.31-24.53-40-24.53-16.55,0-31.14,9.54-39.75,24" transform="translate(-72.23 70.13)"/><path class="cls-3" d="M449.54,510.72c-6.7-10.44-17.55-17.22-29.78-17.22s-23.07,6.77-29.78,17.2" transform="translate(-72.23 70.13)"/><path class="cls-3" d="M440.49,518c-4.71-7.2-12.24-11.86-20.73-11.86s-16,4.66-20.72,11.86" transform="translate(-72.23 70.13)"/><path class="cls-3" d="M432.62,527.24c-2.53-5.11-7.34-8.56-12.86-8.56s-10.32,3.45-12.85,8.55" transform="translate(-72.23 70.13)"/><path class="cls-3" d="M589.17,502.46c-10.13-20.38-29.35-34.14-51.4-34.14s-41.26,13.75-51.39,34.13" transform="translate(-72.23 70.13)"/><path class="cls-3" d="M577.81,505.44c-8.58-14.78-23.31-24.53-40-24.53-16.55,0-31.14,9.54-39.75,24" transform="translate(-72.23 70.13)"/><path class="cls-3" d="M567.55,510.72c-6.71-10.44-17.55-17.22-29.78-17.22s-23.06,6.77-29.78,17.2" transform="translate(-72.23 70.13)"/><path class="cls-3" d="M558.5,518c-4.71-7.2-12.24-11.86-20.73-11.86s-16,4.66-20.73,11.86" transform="translate(-72.23 70.13)"/><path class="cls-3" d="M550.63,527.24c-2.53-5.11-7.34-8.56-12.86-8.56s-10.32,3.45-12.85,8.55" transform="translate(-72.23 70.13)"/><path class="cls-3" d="M707.18,502.46c-10.13-20.38-29.36-34.14-51.4-34.14s-41.26,13.75-51.39,34.13" transform="translate(-72.23 70.13)"/><path class="cls-3" d="M695.81,505.44c-8.58-14.78-23.3-24.53-40-24.53-16.55,0-31.14,9.54-39.75,24" transform="translate(-72.23 70.13)"/><path class="cls-3" d="M685.56,510.72c-6.71-10.44-17.55-17.22-29.78-17.22s-23.07,6.77-29.78,17.2" transform="translate(-72.23 70.13)"/><path class="cls-3" d="M676.51,518c-4.71-7.2-12.24-11.86-20.73-11.86s-16,4.66-20.73,11.86" transform="translate(-72.23 70.13)"/><path class="cls-3" d="M668.64,527.24c-2.53-5.11-7.35-8.56-12.86-8.56s-10.32,3.45-12.85,8.55" transform="translate(-72.23 70.13)"/><path class="cls-3" d="M825.18,502.46c-10.13-20.38-29.35-34.14-51.4-34.14s-41.25,13.75-51.38,34.13" transform="translate(-72.23 70.13)"/><path class="cls-3" d="M813.82,505.44c-8.58-14.78-23.31-24.53-40-24.53-16.54,0-31.13,9.54-39.74,24" transform="translate(-72.23 70.13)"/><path class="cls-3" d="M803.57,510.72c-6.71-10.44-17.55-17.22-29.79-17.22s-23.06,6.77-29.77,17.2" transform="translate(-72.23 70.13)"/><path class="cls-3" d="M794.51,518c-4.7-7.2-12.23-11.86-20.73-11.86s-16,4.66-20.72,11.86" transform="translate(-72.23 70.13)"/><path class="cls-3" d="M786.64,527.24c-2.52-5.11-7.34-8.56-12.86-8.56s-10.31,3.45-12.85,8.55" transform="translate(-72.23 70.13)"/><path class="cls-3" d="M235.14,569.61c-10.13-20.38-29.35-34.14-51.4-34.14s-41.25,13.75-51.38,34.13" transform="translate(-72.23 70.13)"/><path class="cls-3" d="M223.78,572.59c-8.58-14.78-23.31-24.53-40-24.53-16.54,0-31.13,9.54-39.75,24.05" transform="translate(-72.23 70.13)"/><path class="cls-3" d="M213.52,577.86c-6.7-10.43-17.54-17.21-29.78-17.21s-23.06,6.77-29.77,17.2" transform="translate(-72.23 70.13)"/><path class="cls-3" d="M204.47,585.1c-4.7-7.19-12.24-11.86-20.73-11.86s-16,4.67-20.72,11.87" transform="translate(-72.23 70.13)"/><path class="cls-3" d="M196.6,594.38c-2.53-5.1-7.34-8.55-12.86-8.55s-10.32,3.44-12.85,8.54" transform="translate(-72.23 70.13)"/><path class="cls-3" d="M353.15,569.61c-10.13-20.38-29.35-34.14-51.4-34.14s-41.25,13.75-51.39,34.13" transform="translate(-72.23 70.13)"/><path class="cls-3" d="M341.79,572.59c-8.58-14.78-23.31-24.53-40-24.53-16.54,0-31.14,9.54-39.75,24.05" transform="translate(-72.23 70.13)"/><path class="cls-3" d="M331.54,577.86c-6.71-10.43-17.55-17.21-29.79-17.21s-23.06,6.77-29.77,17.2" transform="translate(-72.23 70.13)"/><path class="cls-3" d="M322.48,585.1c-4.7-7.19-12.24-11.86-20.73-11.86s-16,4.67-20.72,11.87" transform="translate(-72.23 70.13)"/><path class="cls-3" d="M314.61,594.38c-2.53-5.1-7.34-8.55-12.86-8.55s-10.32,3.44-12.85,8.54" transform="translate(-72.23 70.13)"/><path class="cls-3" d="M471.16,569.61c-10.13-20.38-29.35-34.14-51.4-34.14s-41.26,13.75-51.39,34.13" transform="translate(-72.23 70.13)"/><path class="cls-3" d="M459.8,572.59c-8.58-14.78-23.31-24.53-40-24.53-16.55,0-31.14,9.54-39.75,24.05" transform="translate(-72.23 70.13)"/><path class="cls-3" d="M449.54,577.86c-6.7-10.43-17.55-17.21-29.78-17.21s-23.07,6.77-29.78,17.2" transform="translate(-72.23 70.13)"/><path class="cls-3" d="M440.49,585.1c-4.71-7.19-12.24-11.86-20.73-11.86s-16,4.67-20.72,11.87" transform="translate(-72.23 70.13)"/><path class="cls-3" d="M432.62,594.38c-2.53-5.1-7.34-8.55-12.86-8.55s-10.32,3.44-12.85,8.54" transform="translate(-72.23 70.13)"/><path class="cls-3" d="M589.17,569.61c-10.13-20.38-29.35-34.14-51.4-34.14s-41.26,13.75-51.39,34.13" transform="translate(-72.23 70.13)"/><path class="cls-3" d="M577.81,572.59c-8.58-14.78-23.31-24.53-40-24.53-16.55,0-31.14,9.54-39.75,24.05" transform="translate(-72.23 70.13)"/><path class="cls-3" d="M567.55,577.86c-6.71-10.43-17.55-17.21-29.78-17.21s-23.06,6.77-29.78,17.2" transform="translate(-72.23 70.13)"/><path class="cls-3" d="M558.5,585.1c-4.71-7.19-12.24-11.86-20.73-11.86s-16,4.67-20.73,11.87" transform="translate(-72.23 70.13)"/><path class="cls-3" d="M550.63,594.38c-2.53-5.1-7.34-8.55-12.86-8.55s-10.32,3.44-12.85,8.54" transform="translate(-72.23 70.13)"/><path class="cls-3" d="M707.18,569.61c-10.13-20.38-29.36-34.14-51.4-34.14s-41.26,13.75-51.39,34.13" transform="translate(-72.23 70.13)"/><path class="cls-3" d="M695.81,572.59c-8.58-14.78-23.3-24.53-40-24.53-16.55,0-31.14,9.54-39.75,24.05" transform="translate(-72.23 70.13)"/><path class="cls-3" d="M685.56,577.86c-6.71-10.43-17.55-17.21-29.78-17.21s-23.07,6.77-29.78,17.2" transform="translate(-72.23 70.13)"/><path class="cls-3" d="M676.51,585.1c-4.71-7.19-12.24-11.86-20.73-11.86s-16,4.67-20.73,11.87" transform="translate(-72.23 70.13)"/><path class="cls-3" d="M668.64,594.38c-2.53-5.1-7.35-8.55-12.86-8.55s-10.32,3.44-12.85,8.54" transform="translate(-72.23 70.13)"/><path class="cls-3" d="M825.18,569.61c-10.13-20.38-29.35-34.14-51.4-34.14s-41.25,13.75-51.38,34.13" transform="translate(-72.23 70.13)"/><path class="cls-3" d="M813.82,572.59c-8.58-14.78-23.31-24.53-40-24.53-16.54,0-31.13,9.54-39.74,24.05" transform="translate(-72.23 70.13)"/><path class="cls-3" d="M803.57,577.86c-6.71-10.43-17.55-17.21-29.79-17.21s-23.06,6.77-29.77,17.2" transform="translate(-72.23 70.13)"/><path class="cls-3" d="M794.51,585.1c-4.7-7.19-12.23-11.86-20.73-11.86s-16,4.67-20.72,11.87" transform="translate(-72.23 70.13)"/><path class="cls-3" d="M786.64,594.38c-2.52-5.1-7.34-8.55-12.86-8.55s-10.31,3.44-12.85,8.54" transform="translate(-72.23 70.13)"/><path class="cls-3" d="M176.14-1.16C166-21.55,146.78-35.31,124.74-35.31S83.48-21.55,73.35-1.18" transform="translate(-72.23 70.13)"/><path class="cls-3" d="M164.77,1.82c-8.57-14.79-23.3-24.54-40-24.54C108.19-22.72,93.6-13.18,85,1.34" transform="translate(-72.23 70.13)"/><path class="cls-3" d="M154.52,7.09C147.81-3.35,137-10.13,124.74-10.13S101.67-3.35,95,7.08" transform="translate(-72.23 70.13)"/><path class="cls-3" d="M145.47,14.33c-4.71-7.2-12.24-11.87-20.73-11.87s-16,4.67-20.72,11.87" transform="translate(-72.23 70.13)"/><path class="cls-3" d="M137.6,23.61c-2.53-5.11-7.34-8.55-12.86-8.55s-10.32,3.44-12.85,8.54" transform="translate(-72.23 70.13)"/><path class="cls-3" d="M294.14-1.16C284-21.55,264.79-35.31,242.75-35.31S201.49-21.55,191.36-1.18" transform="translate(-72.23 70.13)"/><path class="cls-3" d="M282.78,1.82c-8.58-14.79-23.3-24.54-40-24.54-16.55,0-31.14,9.54-39.75,24.06" transform="translate(-72.23 70.13)"/><path class="cls-3" d="M272.53,7.09C265.82-3.35,255-10.13,242.75-10.13S219.68-3.35,213,7.08" transform="translate(-72.23 70.13)"/><path class="cls-3" d="M263.48,14.33c-4.71-7.2-12.24-11.87-20.73-11.87s-16,4.67-20.73,11.87" transform="translate(-72.23 70.13)"/><path class="cls-3" d="M255.61,23.61c-2.53-5.11-7.34-8.55-12.86-8.55S232.43,18.5,229.9,23.6" transform="translate(-72.23 70.13)"/><path class="cls-3" d="M412.15-1.16C402-21.55,382.8-35.31,360.76-35.31S319.5-21.55,309.37-1.18" transform="translate(-72.23 70.13)"/><path class="cls-3" d="M400.79,1.82c-8.58-14.79-23.3-24.54-40-24.54-16.55,0-31.14,9.54-39.76,24.06" transform="translate(-72.23 70.13)"/><path class="cls-3" d="M390.54,7.09C383.83-3.35,373-10.13,360.76-10.13S337.69-3.35,331,7.08" transform="translate(-72.23 70.13)"/><path class="cls-3" d="M381.48,14.33c-4.7-7.2-12.23-11.87-20.72-11.87s-16,4.67-20.73,11.87" transform="translate(-72.23 70.13)"/><path class="cls-3" d="M373.61,23.61c-2.52-5.11-7.33-8.55-12.85-8.55S350.44,18.5,347.9,23.6" transform="translate(-72.23 70.13)"/><path class="cls-3" d="M530.16-1.16C520-21.55,500.81-35.31,478.77-35.31S437.5-21.55,427.38-1.18" transform="translate(-72.23 70.13)"/><path class="cls-3" d="M518.8,1.82c-8.58-14.79-23.31-24.54-40-24.54-16.55,0-31.14,9.54-39.76,24.06" transform="translate(-72.23 70.13)"/><path class="cls-3" d="M508.54,7.09C501.84-3.35,491-10.13,478.77-10.13S455.7-3.35,449,7.08" transform="translate(-72.23 70.13)"/><path class="cls-3" d="M499.49,14.33c-4.7-7.2-12.24-11.87-20.72-11.87s-16,4.67-20.73,11.87" transform="translate(-72.23 70.13)"/><path class="cls-3" d="M491.63,23.61c-2.54-5.11-7.35-8.55-12.86-8.55s-10.32,3.44-12.86,8.54" transform="translate(-72.23 70.13)"/><path class="cls-3" d="M648.17-1.16C638-21.55,618.82-35.31,596.78-35.31S555.51-21.55,545.39-1.18" transform="translate(-72.23 70.13)"/><path class="cls-3" d="M636.81,1.82c-8.58-14.79-23.3-24.54-40-24.54-16.56,0-31.14,9.54-39.76,24.06" transform="translate(-72.23 70.13)"/><path class="cls-3" d="M626.56,7.09C619.85-3.35,609-10.13,596.78-10.13S573.71-3.35,567,7.08" transform="translate(-72.23 70.13)"/><path class="cls-3" d="M617.5,14.33c-4.7-7.2-12.24-11.87-20.72-11.87s-16,4.67-20.73,11.87" transform="translate(-72.23 70.13)"/><path class="cls-3" d="M609.63,23.61c-2.53-5.11-7.34-8.55-12.85-8.55s-10.32,3.44-12.86,8.54" transform="translate(-72.23 70.13)"/><path class="cls-3" d="M766.18-1.16c-10.13-20.39-29.35-34.15-51.39-34.15s-41.27,13.76-51.4,34.13" transform="translate(-72.23 70.13)"/><path class="cls-3" d="M754.81,1.82c-8.57-14.79-23.3-24.54-40-24.54-16.55,0-31.14,9.54-39.76,24.06" transform="translate(-72.23 70.13)"/><path class="cls-3" d="M744.57,7.09C737.86-3.35,727-10.13,714.79-10.13S691.72-3.35,685,7.08" transform="translate(-72.23 70.13)"/><path class="cls-3" d="M735.51,14.33c-4.7-7.2-12.24-11.87-20.72-11.87s-16,4.67-20.73,11.87" transform="translate(-72.23 70.13)"/><path class="cls-3" d="M727.64,23.61c-2.53-5.11-7.34-8.55-12.85-8.55s-10.33,3.44-12.86,8.54" transform="translate(-72.23 70.13)"/><path class="cls-3" d="M884.18-1.16c-10.12-20.39-29.34-34.15-51.39-34.15S791.53-21.55,781.4-1.18" transform="translate(-72.23 70.13)"/><path class="cls-3" d="M872.82,1.82c-8.57-14.79-23.3-24.54-40-24.54-16.54,0-31.14,9.54-39.75,24.06" transform="translate(-72.23 70.13)"/><path class="cls-3" d="M862.57,7.09C855.87-3.35,845-10.13,832.79-10.13S809.72-3.35,803,7.08" transform="translate(-72.23 70.13)"/><path class="cls-3" d="M853.52,14.33c-4.71-7.2-12.24-11.87-20.73-11.87s-16,4.67-20.73,11.87" transform="translate(-72.23 70.13)"/><path class="cls-3" d="M845.65,23.61c-2.53-5.11-7.34-8.55-12.86-8.55s-10.32,3.44-12.85,8.54" transform="translate(-72.23 70.13)"/><path class="cls-3" d="M176.14,66C166,45.6,146.78,31.84,124.74,31.84S83.48,45.6,73.35,66" transform="translate(-72.23 70.13)"/><path class="cls-3" d="M164.77,69c-8.57-14.78-23.3-24.53-40-24.53-16.55,0-31.14,9.54-39.75,24" transform="translate(-72.23 70.13)"/><path class="cls-3" d="M154.52,74.24C147.81,63.8,137,57,124.74,57S101.67,63.8,95,74.23" transform="translate(-72.23 70.13)"/><path class="cls-3" d="M145.47,81.48c-4.71-7.2-12.24-11.86-20.73-11.86s-16,4.66-20.72,11.86" transform="translate(-72.23 70.13)"/><path class="cls-3" d="M137.6,90.76c-2.53-5.11-7.34-8.55-12.86-8.55s-10.32,3.44-12.85,8.54" transform="translate(-72.23 70.13)"/><path class="cls-3" d="M294.14,66C284,45.6,264.79,31.84,242.75,31.84S201.49,45.6,191.36,66" transform="translate(-72.23 70.13)"/><path class="cls-3" d="M282.78,69c-8.58-14.78-23.3-24.53-40-24.53-16.55,0-31.14,9.54-39.75,24" transform="translate(-72.23 70.13)"/><path class="cls-3" d="M272.53,74.24C265.82,63.8,255,57,242.75,57S219.68,63.8,213,74.23" transform="translate(-72.23 70.13)"/><path class="cls-3" d="M263.48,81.48c-4.71-7.2-12.24-11.86-20.73-11.86s-16,4.66-20.73,11.86" transform="translate(-72.23 70.13)"/><path class="cls-3" d="M255.61,90.76c-2.53-5.11-7.34-8.55-12.86-8.55s-10.32,3.44-12.85,8.54" transform="translate(-72.23 70.13)"/><path class="cls-3" d="M412.15,66C402,45.6,382.8,31.84,360.76,31.84S319.5,45.6,309.37,66" transform="translate(-72.23 70.13)"/><path class="cls-3" d="M400.79,69c-8.58-14.78-23.3-24.53-40-24.53-16.55,0-31.14,9.54-39.76,24" transform="translate(-72.23 70.13)"/><path class="cls-3" d="M390.54,74.24C383.83,63.8,373,57,360.76,57S337.69,63.8,331,74.23" transform="translate(-72.23 70.13)"/><path class="cls-3" d="M381.48,81.48c-4.7-7.2-12.23-11.86-20.72-11.86s-16,4.66-20.73,11.86" transform="translate(-72.23 70.13)"/><path class="cls-3" d="M373.61,90.76c-2.52-5.11-7.33-8.55-12.85-8.55s-10.32,3.44-12.86,8.54" transform="translate(-72.23 70.13)"/><path class="cls-3" d="M530.16,66C520,45.6,500.81,31.84,478.77,31.84S437.5,45.6,427.38,66" transform="translate(-72.23 70.13)"/><path class="cls-3" d="M518.8,69c-8.58-14.78-23.31-24.53-40-24.53-16.55,0-31.14,9.54-39.76,24" transform="translate(-72.23 70.13)"/><path class="cls-3" d="M508.54,74.24C501.84,63.8,491,57,478.77,57S455.7,63.8,449,74.23" transform="translate(-72.23 70.13)"/><path class="cls-3" d="M499.49,81.48c-4.7-7.2-12.24-11.86-20.72-11.86s-16,4.66-20.73,11.86" transform="translate(-72.23 70.13)"/><path class="cls-3" d="M491.63,90.76c-2.54-5.11-7.35-8.55-12.86-8.55s-10.32,3.44-12.86,8.54" transform="translate(-72.23 70.13)"/><path class="cls-3" d="M648.17,66C638,45.6,618.82,31.84,596.78,31.84S555.51,45.6,545.39,66" transform="translate(-72.23 70.13)"/><path class="cls-3" d="M636.81,69c-8.58-14.78-23.3-24.53-40-24.53-16.56,0-31.14,9.54-39.76,24" transform="translate(-72.23 70.13)"/><path class="cls-3" d="M626.56,74.24C619.85,63.8,609,57,596.78,57S573.71,63.8,567,74.23" transform="translate(-72.23 70.13)"/><path class="cls-3" d="M617.5,81.48c-4.7-7.2-12.24-11.86-20.72-11.86s-16,4.66-20.73,11.86" transform="translate(-72.23 70.13)"/><path class="cls-3" d="M609.63,90.76c-2.53-5.11-7.34-8.55-12.85-8.55s-10.32,3.44-12.86,8.54" transform="translate(-72.23 70.13)"/><path class="cls-3" d="M766.18,66c-10.13-20.39-29.35-34.15-51.39-34.15S673.52,45.6,663.39,66" transform="translate(-72.23 70.13)"/><path class="cls-3" d="M754.81,69c-8.57-14.78-23.3-24.53-40-24.53-16.55,0-31.14,9.54-39.76,24" transform="translate(-72.23 70.13)"/><path class="cls-3" d="M744.57,74.24C737.86,63.8,727,57,714.79,57S691.72,63.8,685,74.23" transform="translate(-72.23 70.13)"/><path class="cls-3" d="M735.51,81.48c-4.7-7.2-12.24-11.86-20.72-11.86s-16,4.66-20.73,11.86" transform="translate(-72.23 70.13)"/><path class="cls-3" d="M727.64,90.76c-2.53-5.11-7.34-8.55-12.85-8.55s-10.33,3.44-12.86,8.54" transform="translate(-72.23 70.13)"/><path class="cls-3" d="M884.18,66c-10.12-20.39-29.34-34.15-51.39-34.15S791.53,45.6,781.4,66" transform="translate(-72.23 70.13)"/><path class="cls-3" d="M872.82,69c-8.57-14.78-23.3-24.53-40-24.53-16.54,0-31.14,9.54-39.75,24" transform="translate(-72.23 70.13)"/><path class="cls-3" d="M862.57,74.24C855.87,63.8,845,57,832.79,57S809.72,63.8,803,74.23" transform="translate(-72.23 70.13)"/><path class="cls-3" d="M853.52,81.48c-4.71-7.2-12.24-11.86-20.73-11.86s-16,4.66-20.73,11.86" transform="translate(-72.23 70.13)"/><path class="cls-3" d="M845.65,90.76c-2.53-5.11-7.34-8.55-12.86-8.55s-10.32,3.44-12.85,8.54" transform="translate(-72.23 70.13)"/><path class="cls-3" d="M176.14,133.14C166,112.75,146.78,99,124.74,99s-41.26,13.76-51.39,34.13" transform="translate(-72.23 70.13)"/><path class="cls-3" d="M164.77,136.12c-8.57-14.78-23.3-24.54-40-24.54-16.55,0-31.14,9.55-39.75,24.06" transform="translate(-72.23 70.13)"/><path class="cls-3" d="M154.52,141.39C147.81,131,137,124.17,124.74,124.17S101.67,131,95,141.38" transform="translate(-72.23 70.13)"/><path class="cls-3" d="M145.47,148.63c-4.71-7.2-12.24-11.87-20.73-11.87s-16,4.67-20.72,11.87" transform="translate(-72.23 70.13)"/><path class="cls-3" d="M137.6,157.91c-2.53-5.11-7.34-8.56-12.86-8.56s-10.32,3.45-12.85,8.54" transform="translate(-72.23 70.13)"/><path class="cls-3" d="M294.14,133.14C284,112.75,264.79,99,242.75,99s-41.26,13.76-51.39,34.13" transform="translate(-72.23 70.13)"/><path class="cls-3" d="M282.78,136.12c-8.58-14.78-23.3-24.54-40-24.54-16.55,0-31.14,9.55-39.75,24.06" transform="translate(-72.23 70.13)"/><path class="cls-3" d="M272.53,141.39C265.82,131,255,124.17,242.75,124.17S219.68,131,213,141.38" transform="translate(-72.23 70.13)"/><path class="cls-3" d="M263.48,148.63c-4.71-7.2-12.24-11.87-20.73-11.87s-16,4.67-20.73,11.87" transform="translate(-72.23 70.13)"/><path class="cls-3" d="M255.61,157.91c-2.53-5.11-7.34-8.56-12.86-8.56s-10.32,3.45-12.85,8.54" transform="translate(-72.23 70.13)"/><path class="cls-3" d="M412.15,133.14C402,112.75,382.8,99,360.76,99s-41.26,13.76-51.39,34.13" transform="translate(-72.23 70.13)"/><path class="cls-3" d="M400.79,136.12c-8.58-14.78-23.3-24.54-40-24.54-16.55,0-31.14,9.55-39.76,24.06" transform="translate(-72.23 70.13)"/><path class="cls-3" d="M390.54,141.39C383.83,131,373,124.17,360.76,124.17S337.69,131,331,141.38" transform="translate(-72.23 70.13)"/><path class="cls-3" d="M381.48,148.63c-4.7-7.2-12.23-11.87-20.72-11.87s-16,4.67-20.73,11.87" transform="translate(-72.23 70.13)"/><path class="cls-3" d="M373.61,157.91c-2.52-5.11-7.33-8.56-12.85-8.56s-10.32,3.45-12.86,8.54" transform="translate(-72.23 70.13)"/><path class="cls-3" d="M530.16,133.14C520,112.75,500.81,99,478.77,99s-41.27,13.76-51.39,34.13" transform="translate(-72.23 70.13)"/><path class="cls-3" d="M518.8,136.12c-8.58-14.78-23.31-24.54-40-24.54-16.55,0-31.14,9.55-39.76,24.06" transform="translate(-72.23 70.13)"/><path class="cls-3" d="M508.54,141.39c-6.7-10.44-17.54-17.22-29.77-17.22S455.7,131,449,141.38" transform="translate(-72.23 70.13)"/><path class="cls-3" d="M499.49,148.63c-4.7-7.2-12.24-11.87-20.72-11.87s-16,4.67-20.73,11.87" transform="translate(-72.23 70.13)"/><path class="cls-3" d="M491.63,157.91c-2.54-5.11-7.35-8.56-12.86-8.56s-10.32,3.45-12.86,8.54" transform="translate(-72.23 70.13)"/><path class="cls-3" d="M648.17,133.14C638,112.75,618.82,99,596.78,99s-41.27,13.76-51.39,34.13" transform="translate(-72.23 70.13)"/><path class="cls-3" d="M636.81,136.12c-8.58-14.78-23.3-24.54-40-24.54-16.56,0-31.14,9.55-39.76,24.06" transform="translate(-72.23 70.13)"/><path class="cls-3" d="M626.56,141.39C619.85,131,609,124.17,596.78,124.17S573.71,131,567,141.38" transform="translate(-72.23 70.13)"/><path class="cls-3" d="M617.5,148.63c-4.7-7.2-12.24-11.87-20.72-11.87s-16,4.67-20.73,11.87" transform="translate(-72.23 70.13)"/><path class="cls-3" d="M609.63,157.91c-2.53-5.11-7.34-8.56-12.85-8.56s-10.32,3.45-12.86,8.54" transform="translate(-72.23 70.13)"/><path class="cls-3" d="M766.18,133.14C756.05,112.75,736.83,99,714.79,99s-41.27,13.76-51.4,34.13" transform="translate(-72.23 70.13)"/><path class="cls-3" d="M754.81,136.12c-8.57-14.78-23.3-24.54-40-24.54-16.55,0-31.14,9.55-39.76,24.06" transform="translate(-72.23 70.13)"/><path class="cls-3" d="M744.57,141.39C737.86,131,727,124.17,714.79,124.17S691.72,131,685,141.38" transform="translate(-72.23 70.13)"/><path class="cls-3" d="M735.51,148.63c-4.7-7.2-12.24-11.87-20.72-11.87s-16,4.67-20.73,11.87" transform="translate(-72.23 70.13)"/><path class="cls-3" d="M727.64,157.91c-2.53-5.11-7.34-8.56-12.85-8.56s-10.33,3.45-12.86,8.54" transform="translate(-72.23 70.13)"/><path class="cls-3" d="M884.18,133.14C874.06,112.75,854.84,99,832.79,99s-41.26,13.76-51.39,34.13" transform="translate(-72.23 70.13)"/><path class="cls-3" d="M872.82,136.12c-8.57-14.78-23.3-24.54-40-24.54-16.54,0-31.14,9.55-39.75,24.06" transform="translate(-72.23 70.13)"/><path class="cls-3" d="M862.57,141.39c-6.7-10.44-17.55-17.22-29.78-17.22S809.72,131,803,141.38" transform="translate(-72.23 70.13)"/><path class="cls-3" d="M853.52,148.63c-4.71-7.2-12.24-11.87-20.73-11.87s-16,4.67-20.73,11.87" transform="translate(-72.23 70.13)"/><path class="cls-3" d="M845.65,157.91c-2.53-5.11-7.34-8.56-12.86-8.56s-10.32,3.45-12.85,8.54" transform="translate(-72.23 70.13)"/><path class="cls-3" d="M176.14,200.29c-10.13-20.39-29.36-34.15-51.4-34.15S83.48,179.9,73.35,200.27" transform="translate(-72.23 70.13)"/><path class="cls-3" d="M164.77,203.27c-8.57-14.78-23.3-24.54-40-24.54-16.55,0-31.14,9.55-39.75,24.06" transform="translate(-72.23 70.13)"/><path class="cls-3" d="M154.52,208.54c-6.71-10.44-17.55-17.22-29.78-17.22S101.67,198.1,95,208.53" transform="translate(-72.23 70.13)"/><path class="cls-3" d="M145.47,215.78c-4.71-7.2-12.24-11.86-20.73-11.86s-16,4.66-20.72,11.86" transform="translate(-72.23 70.13)"/><path class="cls-3" d="M137.6,225.06c-2.53-5.11-7.34-8.55-12.86-8.55s-10.32,3.44-12.85,8.54" transform="translate(-72.23 70.13)"/><path class="cls-3" d="M294.14,200.29c-10.12-20.39-29.35-34.15-51.39-34.15s-41.26,13.76-51.39,34.13" transform="translate(-72.23 70.13)"/><path class="cls-3" d="M282.78,203.27c-8.58-14.78-23.3-24.54-40-24.54-16.55,0-31.14,9.55-39.75,24.06" transform="translate(-72.23 70.13)"/><path class="cls-3" d="M272.53,208.54c-6.71-10.44-17.55-17.22-29.78-17.22S219.68,198.1,213,208.53" transform="translate(-72.23 70.13)"/><path class="cls-3" d="M263.48,215.78c-4.71-7.2-12.24-11.86-20.73-11.86s-16,4.66-20.73,11.86" transform="translate(-72.23 70.13)"/><path class="cls-3" d="M255.61,225.06c-2.53-5.11-7.34-8.55-12.86-8.55s-10.32,3.44-12.85,8.54" transform="translate(-72.23 70.13)"/><path class="cls-3" d="M412.15,200.29C402,179.9,382.8,166.14,360.76,166.14s-41.26,13.76-51.39,34.13" transform="translate(-72.23 70.13)"/><path class="cls-3" d="M400.79,203.27c-8.58-14.78-23.3-24.54-40-24.54-16.55,0-31.14,9.55-39.76,24.06" transform="translate(-72.23 70.13)"/><path class="cls-3" d="M390.54,208.54c-6.71-10.44-17.55-17.22-29.78-17.22S337.69,198.1,331,208.53" transform="translate(-72.23 70.13)"/><path class="cls-3" d="M381.48,215.78c-4.7-7.2-12.23-11.86-20.72-11.86s-16,4.66-20.73,11.86" transform="translate(-72.23 70.13)"/><path class="cls-3" d="M373.61,225.06c-2.52-5.11-7.33-8.55-12.85-8.55s-10.32,3.44-12.86,8.54" transform="translate(-72.23 70.13)"/><path class="cls-3" d="M530.16,200.29c-10.12-20.39-29.35-34.15-51.39-34.15s-41.27,13.76-51.39,34.13" transform="translate(-72.23 70.13)"/><path class="cls-3" d="M518.8,203.27c-8.58-14.78-23.31-24.54-40-24.54-16.55,0-31.14,9.55-39.76,24.06" transform="translate(-72.23 70.13)"/><path class="cls-3" d="M508.54,208.54c-6.7-10.44-17.54-17.22-29.77-17.22S455.7,198.1,449,208.53" transform="translate(-72.23 70.13)"/><path class="cls-3" d="M499.49,215.78c-4.7-7.2-12.24-11.86-20.72-11.86s-16,4.66-20.73,11.86" transform="translate(-72.23 70.13)"/><path class="cls-3" d="M491.63,225.06c-2.54-5.11-7.35-8.55-12.86-8.55s-10.32,3.44-12.86,8.54" transform="translate(-72.23 70.13)"/><path class="cls-3" d="M648.17,200.29c-10.13-20.39-29.35-34.15-51.39-34.15s-41.27,13.76-51.39,34.13" transform="translate(-72.23 70.13)"/><path class="cls-3" d="M636.81,203.27c-8.58-14.78-23.3-24.54-40-24.54-16.56,0-31.14,9.55-39.76,24.06" transform="translate(-72.23 70.13)"/><path class="cls-3" d="M626.56,208.54c-6.71-10.44-17.55-17.22-29.78-17.22S573.71,198.1,567,208.53" transform="translate(-72.23 70.13)"/><path class="cls-3" d="M617.5,215.78c-4.7-7.2-12.24-11.86-20.72-11.86s-16,4.66-20.73,11.86" transform="translate(-72.23 70.13)"/><path class="cls-3" d="M609.63,225.06c-2.53-5.11-7.34-8.55-12.85-8.55s-10.32,3.44-12.86,8.54" transform="translate(-72.23 70.13)"/><path class="cls-3" d="M766.18,200.29c-10.13-20.39-29.35-34.15-51.39-34.15s-41.27,13.76-51.4,34.13" transform="translate(-72.23 70.13)"/><path class="cls-3" d="M754.81,203.27c-8.57-14.78-23.3-24.54-40-24.54-16.55,0-31.14,9.55-39.76,24.06" transform="translate(-72.23 70.13)"/><path class="cls-3" d="M744.57,208.54c-6.71-10.44-17.56-17.22-29.78-17.22S691.72,198.1,685,208.53" transform="translate(-72.23 70.13)"/><path class="cls-3" d="M735.51,215.78c-4.7-7.2-12.24-11.86-20.72-11.86s-16,4.66-20.73,11.86" transform="translate(-72.23 70.13)"/><path class="cls-3" d="M727.64,225.06c-2.53-5.11-7.34-8.55-12.85-8.55s-10.33,3.44-12.86,8.54" transform="translate(-72.23 70.13)"/><path class="cls-3" d="M884.18,200.29c-10.12-20.39-29.34-34.15-51.39-34.15s-41.26,13.76-51.39,34.13" transform="translate(-72.23 70.13)"/><path class="cls-3" d="M872.82,203.27c-8.57-14.78-23.3-24.54-40-24.54-16.54,0-31.14,9.55-39.75,24.06" transform="translate(-72.23 70.13)"/><path class="cls-3" d="M862.57,208.54c-6.7-10.44-17.55-17.22-29.78-17.22S809.72,198.1,803,208.53" transform="translate(-72.23 70.13)"/><path class="cls-3" d="M853.52,215.78c-4.71-7.2-12.24-11.86-20.73-11.86s-16,4.66-20.73,11.86" transform="translate(-72.23 70.13)"/><path class="cls-3" d="M845.65,225.06c-2.53-5.11-7.34-8.55-12.86-8.55s-10.32,3.44-12.85,8.54" transform="translate(-72.23 70.13)"/><path class="cls-3" d="M176.14,267.43c-10.13-20.38-29.36-34.14-51.4-34.14s-41.26,13.76-51.39,34.14" transform="translate(-72.23 70.13)"/><path class="cls-3" d="M164.77,270.42c-8.57-14.78-23.3-24.54-40-24.54-16.55,0-31.14,9.55-39.75,24.06" transform="translate(-72.23 70.13)"/><path class="cls-3" d="M154.52,275.69c-6.71-10.44-17.55-17.22-29.78-17.22S101.67,265.25,95,275.68" transform="translate(-72.23 70.13)"/><path class="cls-3" d="M145.47,282.93c-4.71-7.2-12.24-11.87-20.73-11.87s-16,4.67-20.72,11.87" transform="translate(-72.23 70.13)"/><path class="cls-3" d="M137.6,292.21c-2.53-5.11-7.34-8.55-12.86-8.55s-10.32,3.44-12.85,8.54" transform="translate(-72.23 70.13)"/><path class="cls-3" d="M294.14,267.43c-10.12-20.38-29.35-34.14-51.39-34.14s-41.26,13.76-51.39,34.14" transform="translate(-72.23 70.13)"/><path class="cls-3" d="M282.78,270.42c-8.58-14.78-23.3-24.54-40-24.54-16.55,0-31.14,9.55-39.75,24.06" transform="translate(-72.23 70.13)"/><path class="cls-3" d="M272.53,275.69c-6.71-10.44-17.55-17.22-29.78-17.22s-23.07,6.78-29.78,17.21" transform="translate(-72.23 70.13)"/><path class="cls-3" d="M263.48,282.93c-4.71-7.2-12.24-11.87-20.73-11.87s-16,4.67-20.73,11.87" transform="translate(-72.23 70.13)"/><path class="cls-3" d="M255.61,292.21c-2.53-5.11-7.34-8.55-12.86-8.55s-10.32,3.44-12.85,8.54" transform="translate(-72.23 70.13)"/><path class="cls-3" d="M412.15,267.43c-10.13-20.38-29.35-34.14-51.39-34.14s-41.26,13.76-51.39,34.14" transform="translate(-72.23 70.13)"/><path class="cls-3" d="M400.79,270.42c-8.58-14.78-23.3-24.54-40-24.54-16.55,0-31.14,9.55-39.76,24.06" transform="translate(-72.23 70.13)"/><path class="cls-3" d="M390.54,275.69c-6.71-10.44-17.55-17.22-29.78-17.22s-23.07,6.78-29.78,17.21" transform="translate(-72.23 70.13)"/><path class="cls-3" d="M381.48,282.93c-4.7-7.2-12.23-11.87-20.72-11.87s-16,4.67-20.73,11.87" transform="translate(-72.23 70.13)"/><path class="cls-3" d="M373.61,292.21c-2.52-5.11-7.33-8.55-12.85-8.55s-10.32,3.44-12.86,8.54" transform="translate(-72.23 70.13)"/><path class="cls-3" d="M530.16,267.43c-10.12-20.38-29.35-34.14-51.39-34.14s-41.27,13.76-51.39,34.14" transform="translate(-72.23 70.13)"/><path class="cls-3" d="M518.8,270.42c-8.58-14.78-23.31-24.54-40-24.54-16.55,0-31.14,9.55-39.76,24.06" transform="translate(-72.23 70.13)"/><path class="cls-3" d="M508.54,275.69c-6.7-10.44-17.54-17.22-29.77-17.22S455.7,265.25,449,275.68" transform="translate(-72.23 70.13)"/><path class="cls-3" d="M499.49,282.93c-4.7-7.2-12.24-11.87-20.72-11.87s-16,4.67-20.73,11.87" transform="translate(-72.23 70.13)"/><path class="cls-3" d="M491.63,292.21c-2.54-5.11-7.35-8.55-12.86-8.55s-10.32,3.44-12.86,8.54" transform="translate(-72.23 70.13)"/><path class="cls-3" d="M648.17,267.43c-10.13-20.38-29.35-34.14-51.39-34.14s-41.27,13.76-51.39,34.14" transform="translate(-72.23 70.13)"/><path class="cls-3" d="M636.81,270.42c-8.58-14.78-23.3-24.54-40-24.54-16.56,0-31.14,9.55-39.76,24.06" transform="translate(-72.23 70.13)"/><path class="cls-3" d="M626.56,275.69c-6.71-10.44-17.55-17.22-29.78-17.22s-23.07,6.78-29.78,17.21" transform="translate(-72.23 70.13)"/><path class="cls-3" d="M617.5,282.93c-4.7-7.2-12.24-11.87-20.72-11.87s-16,4.67-20.73,11.87" transform="translate(-72.23 70.13)"/><path class="cls-3" d="M609.63,292.21c-2.53-5.11-7.34-8.55-12.85-8.55s-10.32,3.44-12.86,8.54" transform="translate(-72.23 70.13)"/><path class="cls-3" d="M766.18,267.43c-10.13-20.38-29.35-34.14-51.39-34.14s-41.27,13.76-51.4,34.14" transform="translate(-72.23 70.13)"/><path class="cls-3" d="M754.81,270.42c-8.57-14.78-23.3-24.54-40-24.54-16.55,0-31.14,9.55-39.76,24.06" transform="translate(-72.23 70.13)"/><path class="cls-3" d="M744.57,275.69c-6.71-10.44-17.56-17.22-29.78-17.22s-23.07,6.78-29.78,17.21" transform="translate(-72.23 70.13)"/><path class="cls-3" d="M735.51,282.93c-4.7-7.2-12.24-11.87-20.72-11.87s-16,4.67-20.73,11.87" transform="translate(-72.23 70.13)"/><path class="cls-3" d="M727.64,292.21c-2.53-5.11-7.34-8.55-12.85-8.55s-10.33,3.44-12.86,8.54" transform="translate(-72.23 70.13)"/><path class="cls-3" d="M884.18,267.43c-10.12-20.38-29.34-34.14-51.39-34.14s-41.26,13.76-51.39,34.14" transform="translate(-72.23 70.13)"/><path class="cls-3" d="M872.82,270.42c-8.57-14.78-23.3-24.54-40-24.54-16.54,0-31.14,9.55-39.75,24.06" transform="translate(-72.23 70.13)"/><path class="cls-3" d="M862.57,275.69c-6.7-10.44-17.55-17.22-29.78-17.22s-23.07,6.78-29.78,17.21" transform="translate(-72.23 70.13)"/><path class="cls-3" d="M853.52,282.93c-4.71-7.2-12.24-11.87-20.73-11.87s-16,4.67-20.73,11.87" transform="translate(-72.23 70.13)"/><path class="cls-3" d="M845.65,292.21c-2.53-5.11-7.34-8.55-12.86-8.55s-10.32,3.44-12.85,8.54" transform="translate(-72.23 70.13)"/><path class="cls-3" d="M176.14,334.59c-10.13-20.39-29.36-34.14-51.4-34.14S83.48,314.2,73.35,334.58" transform="translate(-72.23 70.13)"/><path class="cls-3" d="M164.77,337.57c-8.57-14.78-23.3-24.53-40-24.53-16.55,0-31.14,9.54-39.75,24" transform="translate(-72.23 70.13)"/><path class="cls-3" d="M154.52,342.84c-6.71-10.44-17.55-17.22-29.78-17.22S101.67,332.4,95,342.83" transform="translate(-72.23 70.13)"/><path class="cls-3" d="M145.47,350.08c-4.71-7.2-12.24-11.87-20.73-11.87s-16,4.67-20.72,11.87" transform="translate(-72.23 70.13)"/><path class="cls-3" d="M137.6,359.36c-2.53-5.1-7.34-8.56-12.86-8.56s-10.32,3.45-12.85,8.55" transform="translate(-72.23 70.13)"/><path class="cls-3" d="M294.14,334.59c-10.12-20.39-29.35-34.14-51.39-34.14s-41.26,13.75-51.39,34.13" transform="translate(-72.23 70.13)"/><path class="cls-3" d="M282.78,337.57c-8.58-14.78-23.3-24.53-40-24.53-16.55,0-31.14,9.54-39.75,24" transform="translate(-72.23 70.13)"/><path class="cls-3" d="M272.53,342.84c-6.71-10.44-17.55-17.22-29.78-17.22S219.68,332.4,213,342.83" transform="translate(-72.23 70.13)"/><path class="cls-3" d="M263.48,350.08c-4.71-7.2-12.24-11.87-20.73-11.87s-16,4.67-20.73,11.87" transform="translate(-72.23 70.13)"/><path class="cls-3" d="M255.61,359.36c-2.53-5.1-7.34-8.56-12.86-8.56s-10.32,3.45-12.85,8.55" transform="translate(-72.23 70.13)"/><path class="cls-3" d="M412.15,334.59C402,314.2,382.8,300.45,360.76,300.45s-41.26,13.75-51.39,34.13" transform="translate(-72.23 70.13)"/><path class="cls-3" d="M400.79,337.57c-8.58-14.78-23.3-24.53-40-24.53-16.55,0-31.14,9.54-39.76,24" transform="translate(-72.23 70.13)"/><path class="cls-3" d="M390.54,342.84c-6.71-10.44-17.55-17.22-29.78-17.22S337.69,332.4,331,342.83" transform="translate(-72.23 70.13)"/><path class="cls-3" d="M381.48,350.08c-4.7-7.2-12.23-11.87-20.72-11.87s-16,4.67-20.73,11.87" transform="translate(-72.23 70.13)"/><path class="cls-3" d="M373.61,359.36c-2.52-5.1-7.33-8.56-12.85-8.56s-10.32,3.45-12.86,8.55" transform="translate(-72.23 70.13)"/><path class="cls-3" d="M530.16,334.59c-10.12-20.39-29.35-34.14-51.39-34.14s-41.27,13.75-51.39,34.13" transform="translate(-72.23 70.13)"/><path class="cls-3" d="M518.8,337.57c-8.58-14.78-23.31-24.53-40-24.53-16.55,0-31.14,9.54-39.76,24" transform="translate(-72.23 70.13)"/><path class="cls-3" d="M508.54,342.84c-6.7-10.44-17.54-17.22-29.77-17.22S455.7,332.4,449,342.83" transform="translate(-72.23 70.13)"/><path class="cls-3" d="M499.49,350.08c-4.7-7.2-12.24-11.87-20.72-11.87s-16,4.67-20.73,11.87" transform="translate(-72.23 70.13)"/><path class="cls-3" d="M491.63,359.36c-2.54-5.1-7.35-8.56-12.86-8.56s-10.32,3.45-12.86,8.55" transform="translate(-72.23 70.13)"/><path class="cls-3" d="M648.17,334.59c-10.13-20.39-29.35-34.14-51.39-34.14s-41.27,13.75-51.39,34.13" transform="translate(-72.23 70.13)"/><path class="cls-3" d="M636.81,337.57c-8.58-14.78-23.3-24.53-40-24.53-16.56,0-31.14,9.54-39.76,24" transform="translate(-72.23 70.13)"/><path class="cls-3" d="M626.56,342.84c-6.71-10.44-17.55-17.22-29.78-17.22S573.71,332.4,567,342.83" transform="translate(-72.23 70.13)"/><path class="cls-3" d="M617.5,350.08c-4.7-7.2-12.24-11.87-20.72-11.87s-16,4.67-20.73,11.87" transform="translate(-72.23 70.13)"/><path class="cls-3" d="M609.63,359.36c-2.53-5.1-7.34-8.56-12.85-8.56s-10.32,3.45-12.86,8.55" transform="translate(-72.23 70.13)"/><path class="cls-3" d="M766.18,334.59c-10.13-20.39-29.35-34.14-51.39-34.14s-41.27,13.75-51.4,34.13" transform="translate(-72.23 70.13)"/><path class="cls-3" d="M754.81,337.57c-8.57-14.78-23.3-24.53-40-24.53-16.55,0-31.14,9.54-39.76,24" transform="translate(-72.23 70.13)"/><path class="cls-3" d="M744.57,342.84c-6.71-10.44-17.56-17.22-29.78-17.22S691.72,332.4,685,342.83" transform="translate(-72.23 70.13)"/><path class="cls-3" d="M735.51,350.08c-4.7-7.2-12.24-11.87-20.72-11.87s-16,4.67-20.73,11.87" transform="translate(-72.23 70.13)"/><path class="cls-3" d="M727.64,359.36c-2.53-5.1-7.34-8.56-12.85-8.56s-10.33,3.45-12.86,8.55" transform="translate(-72.23 70.13)"/><path class="cls-3" d="M884.18,334.59c-10.12-20.39-29.34-34.14-51.39-34.14s-41.26,13.75-51.39,34.13" transform="translate(-72.23 70.13)"/><path class="cls-3" d="M872.82,337.57c-8.57-14.78-23.3-24.53-40-24.53-16.54,0-31.14,9.54-39.75,24" transform="translate(-72.23 70.13)"/><path class="cls-3" d="M862.57,342.84c-6.7-10.44-17.55-17.22-29.78-17.22S809.72,332.4,803,342.83" transform="translate(-72.23 70.13)"/><path class="cls-3" d="M853.52,350.08c-4.71-7.2-12.24-11.87-20.73-11.87s-16,4.67-20.73,11.87" transform="translate(-72.23 70.13)"/><path class="cls-3" d="M845.65,359.36c-2.53-5.1-7.34-8.56-12.86-8.56s-10.32,3.45-12.85,8.55" transform="translate(-72.23 70.13)"/><path class="cls-3" d="M176.14,401.74c-10.13-20.39-29.36-34.15-51.4-34.15s-41.26,13.76-51.39,34.14" transform="translate(-72.23 70.13)"/><path class="cls-3" d="M164.77,404.72c-8.57-14.78-23.3-24.54-40-24.54-16.55,0-31.14,9.55-39.75,24.06" transform="translate(-72.23 70.13)"/><path class="cls-3" d="M154.52,410c-6.71-10.44-17.55-17.21-29.78-17.21S101.67,399.55,95,410" transform="translate(-72.23 70.13)"/><path class="cls-3" d="M145.47,417.23c-4.71-7.2-12.24-11.86-20.73-11.86s-16,4.66-20.72,11.86" transform="translate(-72.23 70.13)"/><path class="cls-3" d="M137.6,426.51c-2.53-5.1-7.34-8.56-12.86-8.56s-10.32,3.45-12.85,8.55" transform="translate(-72.23 70.13)"/><path class="cls-3" d="M294.14,401.74c-10.12-20.39-29.35-34.15-51.39-34.15s-41.26,13.76-51.39,34.14" transform="translate(-72.23 70.13)"/><path class="cls-3" d="M282.78,404.72c-8.58-14.78-23.3-24.54-40-24.54-16.55,0-31.14,9.55-39.75,24.06" transform="translate(-72.23 70.13)"/><path class="cls-3" d="M272.53,410c-6.71-10.44-17.55-17.21-29.78-17.21S219.68,399.55,213,410" transform="translate(-72.23 70.13)"/><path class="cls-3" d="M263.48,417.23c-4.71-7.2-12.24-11.86-20.73-11.86s-16,4.66-20.73,11.86" transform="translate(-72.23 70.13)"/><path class="cls-3" d="M255.61,426.51c-2.53-5.1-7.34-8.56-12.86-8.56s-10.32,3.45-12.85,8.55" transform="translate(-72.23 70.13)"/><path class="cls-3" d="M412.15,401.74c-10.13-20.39-29.35-34.15-51.39-34.15s-41.26,13.76-51.39,34.14" transform="translate(-72.23 70.13)"/><path class="cls-3" d="M400.79,404.72c-8.58-14.78-23.3-24.54-40-24.54-16.55,0-31.14,9.55-39.76,24.06" transform="translate(-72.23 70.13)"/><path class="cls-3" d="M390.54,410c-6.71-10.44-17.55-17.21-29.78-17.21S337.69,399.55,331,410" transform="translate(-72.23 70.13)"/><path class="cls-3" d="M381.48,417.23c-4.7-7.2-12.23-11.86-20.72-11.86s-16,4.66-20.73,11.86" transform="translate(-72.23 70.13)"/><path class="cls-3" d="M373.61,426.51c-2.52-5.1-7.33-8.56-12.85-8.56s-10.32,3.45-12.86,8.55" transform="translate(-72.23 70.13)"/><path class="cls-3" d="M530.16,401.74c-10.12-20.39-29.35-34.15-51.39-34.15s-41.27,13.76-51.39,34.14" transform="translate(-72.23 70.13)"/><path class="cls-3" d="M518.8,404.72c-8.58-14.78-23.31-24.54-40-24.54-16.55,0-31.14,9.55-39.76,24.06" transform="translate(-72.23 70.13)"/><path class="cls-3" d="M508.54,410c-6.7-10.44-17.54-17.21-29.77-17.21S455.7,399.55,449,410" transform="translate(-72.23 70.13)"/><path class="cls-3" d="M499.49,417.23c-4.7-7.2-12.24-11.86-20.72-11.86s-16,4.66-20.73,11.86" transform="translate(-72.23 70.13)"/><path class="cls-3" d="M491.63,426.51c-2.54-5.1-7.35-8.56-12.86-8.56s-10.32,3.45-12.86,8.55" transform="translate(-72.23 70.13)"/><path class="cls-3" d="M648.17,401.74c-10.13-20.39-29.35-34.15-51.39-34.15s-41.27,13.76-51.39,34.14" transform="translate(-72.23 70.13)"/><path class="cls-3" d="M636.81,404.72c-8.58-14.78-23.3-24.54-40-24.54-16.56,0-31.14,9.55-39.76,24.06" transform="translate(-72.23 70.13)"/><path class="cls-3" d="M626.56,410c-6.71-10.44-17.55-17.21-29.78-17.21S573.71,399.55,567,410" transform="translate(-72.23 70.13)"/><path class="cls-3" d="M617.5,417.23c-4.7-7.2-12.24-11.86-20.72-11.86s-16,4.66-20.73,11.86" transform="translate(-72.23 70.13)"/><path class="cls-3" d="M609.63,426.51c-2.53-5.1-7.34-8.56-12.85-8.56s-10.32,3.45-12.86,8.55" transform="translate(-72.23 70.13)"/><path class="cls-3" d="M766.18,401.74c-10.13-20.39-29.35-34.15-51.39-34.15s-41.27,13.76-51.4,34.14" transform="translate(-72.23 70.13)"/><path class="cls-3" d="M754.81,404.72c-8.57-14.78-23.3-24.54-40-24.54-16.55,0-31.14,9.55-39.76,24.06" transform="translate(-72.23 70.13)"/><path class="cls-3" d="M744.57,410c-6.71-10.44-17.56-17.21-29.78-17.21S691.72,399.55,685,410" transform="translate(-72.23 70.13)"/><path class="cls-3" d="M735.51,417.23c-4.7-7.2-12.24-11.86-20.72-11.86s-16,4.66-20.73,11.86" transform="translate(-72.23 70.13)"/><path class="cls-3" d="M727.64,426.51c-2.53-5.1-7.34-8.56-12.85-8.56s-10.33,3.45-12.86,8.55" transform="translate(-72.23 70.13)"/><path class="cls-3" d="M884.18,401.74c-10.12-20.39-29.34-34.15-51.39-34.15s-41.26,13.76-51.39,34.14" transform="translate(-72.23 70.13)"/><path class="cls-3" d="M872.82,404.72c-8.57-14.78-23.3-24.54-40-24.54-16.54,0-31.14,9.55-39.75,24.06" transform="translate(-72.23 70.13)"/><path class="cls-3" d="M862.57,410c-6.7-10.44-17.55-17.21-29.78-17.21S809.72,399.55,803,410" transform="translate(-72.23 70.13)"/><path class="cls-3" d="M853.52,417.23c-4.71-7.2-12.24-11.86-20.73-11.86s-16,4.66-20.73,11.86" transform="translate(-72.23 70.13)"/><path class="cls-3" d="M845.65,426.51c-2.53-5.1-7.34-8.56-12.86-8.56s-10.32,3.45-12.85,8.55" transform="translate(-72.23 70.13)"/><path class="cls-3" d="M176.14,468.88c-10.13-20.38-29.36-34.13-51.4-34.13S83.48,448.5,73.35,468.87" transform="translate(-72.23 70.13)"/><path class="cls-3" d="M164.77,471.87c-8.57-14.79-23.3-24.54-40-24.54-16.55,0-31.14,9.54-39.75,24.06" transform="translate(-72.23 70.13)"/><path class="cls-3" d="M154.52,477.14c-6.71-10.44-17.55-17.22-29.78-17.22S101.67,466.7,95,477.13" transform="translate(-72.23 70.13)"/><path class="cls-3" d="M145.47,484.38c-4.71-7.2-12.24-11.87-20.73-11.87s-16,4.67-20.72,11.87" transform="translate(-72.23 70.13)"/><path class="cls-3" d="M137.6,493.66c-2.53-5.11-7.34-8.56-12.86-8.56s-10.32,3.45-12.85,8.55" transform="translate(-72.23 70.13)"/><path class="cls-3" d="M294.14,468.88c-10.12-20.38-29.35-34.13-51.39-34.13s-41.26,13.75-51.39,34.12" transform="translate(-72.23 70.13)"/><path class="cls-3" d="M282.78,471.87c-8.58-14.79-23.3-24.54-40-24.54-16.55,0-31.14,9.54-39.75,24.06" transform="translate(-72.23 70.13)"/><path class="cls-3" d="M272.53,477.14c-6.71-10.44-17.55-17.22-29.78-17.22S219.68,466.7,213,477.13" transform="translate(-72.23 70.13)"/><path class="cls-3" d="M263.48,484.38c-4.71-7.2-12.24-11.87-20.73-11.87s-16,4.67-20.73,11.87" transform="translate(-72.23 70.13)"/><path class="cls-3" d="M255.61,493.66c-2.53-5.11-7.34-8.56-12.86-8.56s-10.32,3.45-12.85,8.55" transform="translate(-72.23 70.13)"/><path class="cls-3" d="M412.15,468.88C402,448.5,382.8,434.75,360.76,434.75s-41.26,13.75-51.39,34.12" transform="translate(-72.23 70.13)"/><path class="cls-3" d="M400.79,471.87c-8.58-14.79-23.3-24.54-40-24.54-16.55,0-31.14,9.54-39.76,24.06" transform="translate(-72.23 70.13)"/><path class="cls-3" d="M390.54,477.14c-6.71-10.44-17.55-17.22-29.78-17.22S337.69,466.7,331,477.13" transform="translate(-72.23 70.13)"/><path class="cls-3" d="M381.48,484.38c-4.7-7.2-12.23-11.87-20.72-11.87s-16,4.67-20.73,11.87" transform="translate(-72.23 70.13)"/><path class="cls-3" d="M373.61,493.66c-2.52-5.11-7.33-8.56-12.85-8.56s-10.32,3.45-12.86,8.55" transform="translate(-72.23 70.13)"/><path class="cls-3" d="M530.16,468.88c-10.12-20.38-29.35-34.13-51.39-34.13s-41.27,13.75-51.39,34.12" transform="translate(-72.23 70.13)"/><path class="cls-3" d="M518.8,471.87c-8.58-14.79-23.31-24.54-40-24.54-16.55,0-31.14,9.54-39.76,24.06" transform="translate(-72.23 70.13)"/><path class="cls-3" d="M508.54,477.14c-6.7-10.44-17.54-17.22-29.77-17.22S455.7,466.7,449,477.13" transform="translate(-72.23 70.13)"/><path class="cls-3" d="M499.49,484.38c-4.7-7.2-12.24-11.87-20.72-11.87s-16,4.67-20.73,11.87" transform="translate(-72.23 70.13)"/><path class="cls-3" d="M491.63,493.66c-2.54-5.11-7.35-8.56-12.86-8.56s-10.32,3.45-12.86,8.55" transform="translate(-72.23 70.13)"/><path class="cls-3" d="M648.17,468.88c-10.13-20.38-29.35-34.13-51.39-34.13s-41.27,13.75-51.39,34.12" transform="translate(-72.23 70.13)"/><path class="cls-3" d="M636.81,471.87c-8.58-14.79-23.3-24.54-40-24.54-16.56,0-31.14,9.54-39.76,24.06" transform="translate(-72.23 70.13)"/><path class="cls-3" d="M626.56,477.14c-6.71-10.44-17.55-17.22-29.78-17.22S573.71,466.7,567,477.13" transform="translate(-72.23 70.13)"/><path class="cls-3" d="M617.5,484.38c-4.7-7.2-12.24-11.87-20.72-11.87s-16,4.67-20.73,11.87" transform="translate(-72.23 70.13)"/><path class="cls-3" d="M609.63,493.66c-2.53-5.11-7.34-8.56-12.85-8.56s-10.32,3.45-12.86,8.55" transform="translate(-72.23 70.13)"/><path class="cls-3" d="M766.18,468.88c-10.13-20.38-29.35-34.13-51.39-34.13s-41.27,13.75-51.4,34.12" transform="translate(-72.23 70.13)"/><path class="cls-3" d="M754.81,471.87c-8.57-14.79-23.3-24.54-40-24.54-16.55,0-31.14,9.54-39.76,24.06" transform="translate(-72.23 70.13)"/><path class="cls-3" d="M744.57,477.14c-6.71-10.44-17.56-17.22-29.78-17.22S691.72,466.7,685,477.13" transform="translate(-72.23 70.13)"/><path class="cls-3" d="M735.51,484.38c-4.7-7.2-12.24-11.87-20.72-11.87s-16,4.67-20.73,11.87" transform="translate(-72.23 70.13)"/><path class="cls-3" d="M727.64,493.66c-2.53-5.11-7.34-8.56-12.85-8.56s-10.33,3.45-12.86,8.55" transform="translate(-72.23 70.13)"/><path class="cls-3" d="M884.18,468.88c-10.12-20.38-29.34-34.13-51.39-34.13s-41.26,13.75-51.39,34.12" transform="translate(-72.23 70.13)"/><path class="cls-3" d="M872.82,471.87c-8.57-14.79-23.3-24.54-40-24.54-16.54,0-31.14,9.54-39.75,24.06" transform="translate(-72.23 70.13)"/><path class="cls-3" d="M862.57,477.14c-6.7-10.44-17.55-17.22-29.78-17.22S809.72,466.7,803,477.13" transform="translate(-72.23 70.13)"/><path class="cls-3" d="M853.52,484.38c-4.71-7.2-12.24-11.87-20.73-11.87s-16,4.67-20.73,11.87" transform="translate(-72.23 70.13)"/><path class="cls-3" d="M845.65,493.66c-2.53-5.11-7.34-8.56-12.86-8.56s-10.32,3.45-12.85,8.55" transform="translate(-72.23 70.13)"/><path class="cls-3" d="M176.14,536c-10.13-20.39-29.36-34.15-51.4-34.15S83.48,515.65,73.35,536" transform="translate(-72.23 70.13)"/><path class="cls-3" d="M164.77,539c-8.57-14.77-23.3-24.53-40-24.53-16.55,0-31.14,9.55-39.75,24.06" transform="translate(-72.23 70.13)"/><path class="cls-3" d="M154.52,544.29c-6.71-10.44-17.55-17.21-29.78-17.21s-23.07,6.77-29.78,17.2" transform="translate(-72.23 70.13)"/><path class="cls-3" d="M145.47,551.53c-4.71-7.2-12.24-11.86-20.73-11.86s-16,4.66-20.72,11.86" transform="translate(-72.23 70.13)"/><path class="cls-3" d="M137.6,560.81c-2.53-5.1-7.34-8.55-12.86-8.55s-10.32,3.44-12.85,8.53" transform="translate(-72.23 70.13)"/><path class="cls-3" d="M294.14,536c-10.12-20.39-29.35-34.15-51.39-34.15S201.49,515.65,191.36,536" transform="translate(-72.23 70.13)"/><path class="cls-3" d="M282.78,539c-8.58-14.77-23.3-24.53-40-24.53-16.55,0-31.14,9.55-39.75,24.06" transform="translate(-72.23 70.13)"/><path class="cls-3" d="M272.53,544.29c-6.71-10.44-17.55-17.21-29.78-17.21s-23.07,6.77-29.78,17.2" transform="translate(-72.23 70.13)"/><path class="cls-3" d="M263.48,551.53c-4.71-7.2-12.24-11.86-20.73-11.86s-16,4.66-20.73,11.86" transform="translate(-72.23 70.13)"/><path class="cls-3" d="M255.61,560.81c-2.53-5.1-7.34-8.55-12.86-8.55s-10.32,3.44-12.85,8.53" transform="translate(-72.23 70.13)"/><path class="cls-3" d="M412.15,536c-10.13-20.39-29.35-34.15-51.39-34.15S319.5,515.65,309.37,536" transform="translate(-72.23 70.13)"/><path class="cls-3" d="M400.79,539c-8.58-14.77-23.3-24.53-40-24.53-16.55,0-31.14,9.55-39.76,24.06" transform="translate(-72.23 70.13)"/><path class="cls-3" d="M390.54,544.29c-6.71-10.44-17.55-17.21-29.78-17.21s-23.07,6.77-29.78,17.2" transform="translate(-72.23 70.13)"/><path class="cls-3" d="M381.48,551.53c-4.7-7.2-12.23-11.86-20.72-11.86s-16,4.66-20.73,11.86" transform="translate(-72.23 70.13)"/><path class="cls-3" d="M373.61,560.81c-2.52-5.1-7.33-8.55-12.85-8.55s-10.32,3.44-12.86,8.53" transform="translate(-72.23 70.13)"/><path class="cls-3" d="M530.16,536c-10.12-20.39-29.35-34.15-51.39-34.15S437.5,515.65,427.38,536" transform="translate(-72.23 70.13)"/><path class="cls-3" d="M518.8,539c-8.58-14.77-23.31-24.53-40-24.53-16.55,0-31.14,9.55-39.76,24.06" transform="translate(-72.23 70.13)"/><path class="cls-3" d="M508.54,544.29c-6.7-10.44-17.54-17.21-29.77-17.21s-23.07,6.77-29.78,17.2" transform="translate(-72.23 70.13)"/><path class="cls-3" d="M499.49,551.53c-4.7-7.2-12.24-11.86-20.72-11.86s-16,4.66-20.73,11.86" transform="translate(-72.23 70.13)"/><path class="cls-3" d="M491.63,560.81c-2.54-5.1-7.35-8.55-12.86-8.55s-10.32,3.44-12.86,8.53" transform="translate(-72.23 70.13)"/><path class="cls-3" d="M648.17,536c-10.13-20.39-29.35-34.15-51.39-34.15S555.51,515.65,545.39,536" transform="translate(-72.23 70.13)"/><path class="cls-3" d="M636.81,539c-8.58-14.77-23.3-24.53-40-24.53-16.56,0-31.14,9.55-39.76,24.06" transform="translate(-72.23 70.13)"/><path class="cls-3" d="M626.56,544.29c-6.71-10.44-17.55-17.21-29.78-17.21s-23.07,6.77-29.78,17.2" transform="translate(-72.23 70.13)"/><path class="cls-3" d="M617.5,551.53c-4.7-7.2-12.24-11.86-20.72-11.86s-16,4.66-20.73,11.86" transform="translate(-72.23 70.13)"/><path class="cls-3" d="M609.63,560.81c-2.53-5.1-7.34-8.55-12.85-8.55s-10.32,3.44-12.86,8.53" transform="translate(-72.23 70.13)"/><path class="cls-3" d="M766.18,536c-10.13-20.39-29.35-34.15-51.39-34.15s-41.27,13.76-51.4,34.13" transform="translate(-72.23 70.13)"/><path class="cls-3" d="M754.81,539c-8.57-14.77-23.3-24.53-40-24.53-16.55,0-31.14,9.55-39.76,24.06" transform="translate(-72.23 70.13)"/><path class="cls-3" d="M744.57,544.29c-6.71-10.44-17.56-17.21-29.78-17.21s-23.07,6.77-29.78,17.2" transform="translate(-72.23 70.13)"/><path class="cls-3" d="M735.51,551.53c-4.7-7.2-12.24-11.86-20.72-11.86s-16,4.66-20.73,11.86" transform="translate(-72.23 70.13)"/><path class="cls-3" d="M727.64,560.81c-2.53-5.1-7.34-8.55-12.85-8.55s-10.33,3.44-12.86,8.53" transform="translate(-72.23 70.13)"/><path class="cls-3" d="M884.18,536c-10.12-20.39-29.34-34.15-51.39-34.15S791.53,515.65,781.4,536" transform="translate(-72.23 70.13)"/><path class="cls-3" d="M872.82,539c-8.57-14.77-23.3-24.53-40-24.53-16.54,0-31.14,9.55-39.75,24.06" transform="translate(-72.23 70.13)"/><path class="cls-3" d="M862.57,544.29c-6.7-10.44-17.55-17.21-29.78-17.21s-23.07,6.77-29.78,17.2" transform="translate(-72.23 70.13)"/><path class="cls-3" d="M853.52,551.53c-4.71-7.2-12.24-11.86-20.73-11.86s-16,4.66-20.73,11.86" transform="translate(-72.23 70.13)"/><path class="cls-3" d="M845.65,560.81c-2.53-5.1-7.34-8.55-12.86-8.55s-10.32,3.44-12.85,8.53" transform="translate(-72.23 70.13)"/></g><rect class="cls-1" x="90.77" y="114.41" width="512" height="512"/></svg>